<?xml version="1.0" encoding="UTF-8" standalone="no"?>
<!-- Created with Inkscape (http://www.inkscape.org/) -->

<svg
   width="250"
   height="250"
   viewBox="0 0 66.145832 66.145833"
   version="1.1"
   id="svg1"
   xml:space="preserve"
   inkscape:version="1.4.3 (0d15f75, 2025-12-25)"
   sodipodi:docname="lighter_on.svg"
   xmlns:inkscape="http://www.inkscape.org/namespaces/inkscape"
   xmlns:sodipodi="http://sodipodi.sourceforge.net/DTD/sodipodi-0.dtd"
   xmlns="http://www.w3.org/2000/svg"
   xmlns:svg="http://www.w3.org/2000/svg"><sodipodi:namedview
     id="namedview1"
     pagecolor="#ffffff"
     bordercolor="#000000"
     borderopacity="0.25"
     inkscape:showpageshadow="2"
     inkscape:pageopacity="0.0"
     inkscape:pagecheckerboard="0"
     inkscape:deskcolor="#d1d1d1"
     inkscape:document-units="mm"
     inkscape:zoom="4.4674506"
     inkscape:cx="222.49826"
     inkscape:cy="60.437153"
     inkscape:window-width="3840"
     inkscape:window-height="2054"
     inkscape:window-x="1609"
     inkscape:window-y="1609"
     inkscape:window-maximized="1"
     inkscape:current-layer="layer1" /><defs
     id="defs1" /><g
     inkscape:label="Layer 1"
     inkscape:groupmode="layer"
     id="layer1"><path
       style="fill:#000000;stroke-width:3.01547"
       d="M 30.264432,62.569333 C 30.053802,62.518552 29.019798,62.3369 27.966645,62.165706 22.505773,61.277985 17.074991,58.426383 12.906519,54.25791 8.8457943,50.197183 6.2000696,45.234831 4.9451348,39.325438 c -0.419902,-1.977289 -0.419902,-8.490412 0,-10.467701 C 6.2000696,22.948344 8.8457943,17.985992 12.906519,13.925268 16.969867,9.8619203 21.976353,7.1943859 27.838991,5.9690105 29.569883,5.6072293 35.646752,5.5189182 37.460312,5.8291832 l 1.196105,0.2046294 -0.580036,0.8547258 c -0.319018,0.4700999 -0.716173,1.1822389 -0.882569,1.5825335 l -0.30254,0.7278076 -4.270829,0.022012 -4.270834,0.022012 -2.24374,0.6816705 c -8.419238,2.557852 -14.599734,8.73469 -17.2099484,17.199759 l -0.6918603,2.243745 v 4.723228 4.723228 l 0.6918603,2.243745 c 2.6090354,8.461243 8.7487054,14.600913 17.2099484,17.209948 l 2.24374,0.69186 h 4.723232 4.723229 l 2.282049,-0.702963 c 2.489892,-0.766985 6.94044,-2.936929 6.606589,-3.221157 -0.114468,-0.09746 -1.158918,-0.777274 -2.321016,-1.510724 l -2.112906,-1.333543 -2.750331,0.174023 -2.750331,0.174023 -1.39185,-0.405773 c -0.765518,-0.223175 -1.941564,-0.755064 -2.613437,-1.181977 -0.671874,-0.426909 -1.265156,-0.776197 -1.318402,-0.776197 -0.05326,0 -0.520664,0.757909 -1.0387,1.684243 l -0.941882,1.684244 -0.548121,-0.106476 c -0.740668,-0.143868 -8.845686,-5.305871 -8.845686,-5.633713 0,-0.142994 0.411217,-0.995304 0.913814,-1.894034 l 0.913813,-1.634053 -1.215737,-1.071233 c -0.668658,-0.589178 -1.6256,-1.392966 -2.126535,-1.786192 -1.343709,-1.054783 -1.549071,-1.42508 -1.549071,-2.793199 0,-1.826107 0.542676,-2.68918 1.923019,-3.058364 1.13207,-0.302783 1.448553,-0.751862 0.806149,-1.143912 -0.667899,-0.40761 -1.19731,-1.48817 -1.19731,-2.443787 0,-1.906033 1.27273,-3.249539 3.078353,-3.249539 h 0.805921 l -0.198387,-0.446793 c -0.10913,-0.245731 -0.246726,-0.920625 -0.305781,-1.499758 -0.199022,-1.951606 1.120852,-3.414953 3.080144,-3.414953 h 0.868784 l -0.118598,-1.234267 c -0.294763,-3.067685 2.461953,-4.596723 5.299746,-2.939555 0.631892,0.369003 1.81636,1.054588 2.63215,1.523527 l 1.483257,0.852611 0.397768,-0.952152 c 0.627664,-1.502463 2.655184,-4.909454 2.921639,-4.909454 0.132801,0 0.83913,0.302867 1.569625,0.673034 0.90119,0.456669 1.21672,0.538747 0.981489,0.25532 -0.190668,-0.229749 -0.48492,-0.417727 -0.65388,-0.417727 -0.168957,0 -0.557006,-0.265904 -0.862322,-0.590899 l -0.555123,-0.590903 9.52e-4,-2.153678 9.57e-4,-2.153678 0.497793,-0.7659287 C 39.71845,9.5432686 40.270033,8.739043 40.67039,8.1773644 l 0.72792,-1.0212399 0.91954,-0.018696 c 0.505749,-0.01025 1.188806,-0.1878329 1.517912,-0.3944116 1.241115,-0.779103 5.858242,-2.7780119 6.408046,-2.7742616 0.315186,0.00212 0.732726,0.105029 0.927862,0.228603 l 0.354801,0.2246823 -0.187532,3.7863892 -0.187532,3.7863912 -0.760912,0.960728 c -0.418501,0.528401 -1.441604,1.438207 -2.273557,2.021791 -0.848662,0.595302 -1.512648,1.253739 -1.512648,1.500003 0,0.500622 -1.761295,1.274241 -2.901055,1.274241 h -0.713852 l 0.211776,0.829757 c 0.116488,0.456367 0.211777,1.475623 0.211777,2.265015 v 1.435258 l 0.935295,0.538289 0.935297,0.538287 -0.386608,-0.774974 c -0.504273,-1.01084 -0.264758,-2.271047 0.582969,-3.067459 0.851741,-0.800167 2.592903,-0.853351 3.426507,-0.104668 0.861888,0.774095 2.701655,3.230527 3.163797,4.224259 0.225587,0.485066 0.656606,1.267282 0.957831,1.738258 0.635271,0.993281 1.466202,4.681794 1.480818,6.573388 0.0054,0.716252 0.113895,1.635367 0.240755,2.042477 0.552359,1.772181 1.099015,6.475427 0.83925,7.220588 l -0.260657,0.747686 0.608772,0.571911 0.608772,0.57191 0.254686,-0.669898 c 0.140099,-0.368445 0.458925,-1.390453 0.708539,-2.271127 l 0.453844,-1.601224 -0.01267,-4.595575 -0.01267,-4.595574 -0.700811,-2.282053 c -0.824019,-2.683276 -2.517194,-6.050884 -4.09679,-8.148255 l -1.125535,-1.494469 0.535109,-0.930975 c 0.294311,-0.512036 0.724901,-1.181992 0.956867,-1.488789 l 0.421755,-0.557819 0.890477,1.068438 c 3.110694,3.732364 5.328705,8.362646 6.382162,13.323301 0.419904,1.977287 0.419904,8.490411 0,10.4677 -2.476627,11.662238 -10.943644,20.282906 -22.347873,22.753411 -1.674506,0.362746 -7.692669,0.706448 -8.58824,0.49048 z m 7.740309,-0.775648 C 49.621222,59.767941 58.763497,50.572064 60.806333,38.858402 61.345737,35.765459 61.166334,30.193624 60.438867,27.445672 59.291473,23.111467 57.163899,18.84892 54.842,16.232466 l -0.999679,-1.126497 -0.624262,1.131416 -0.624262,1.131416 1.215752,1.606452 c 1.514881,2.001704 3.020833,5.09664 3.939074,8.095318 l 0.703617,2.297788 v 4.723229 4.723229 l -0.69989,2.297789 C 55.089118,49.85617 48.83742,56.107867 40.093858,58.771096 L 37.79607,59.470987 H 33.072841 28.349609 L 26.051823,58.771096 C 17.308262,56.107867 11.056562,49.85617 8.3933325,41.112606 L 7.6934413,38.814817 V 34.091588 29.368359 L 8.3933325,27.070571 C 11.058365,18.321092 17.379255,12.006311 26.051823,9.4291556 L 28.349609,8.7463391 32.490053,8.6236993 36.630494,8.5010606 37.255743,7.4457672 37.880991,6.3904768 36.944945,6.2137094 C 36.430123,6.1164886 34.731446,6.0303092 33.170111,6.0222279 17.478757,5.9409015 4.9887743,18.381253 4.9887743,34.091582 c 0,13.614326 9.6708757,25.282925 22.9458917,27.685853 2.62563,0.475267 7.393728,0.48296 10.070075,0.01629 z m 11.353873,-8.529231 c 2.439714,-2.030351 4.596018,-4.787026 6.134791,-7.842881 l 0.787125,-1.563156 -0.625526,-0.587654 c -0.452399,-0.425003 -0.625529,-0.857959 -0.625529,-1.564275 0,-0.53714 -0.160635,-1.981953 -0.356995,-3.210693 -0.196338,-1.228741 -0.493416,-3.382967 -0.66015,-4.787172 -0.667091,-5.618135 -1.130083,-7.64289 -1.892321,-8.275493 -0.225256,-0.186959 -0.409561,-0.548354 -0.409561,-0.803125 0,-0.526169 -2.074746,-3.711735 -2.858517,-4.38897 -0.703045,-0.607482 -2.119772,-0.574697 -2.758298,0.06384 -0.834579,0.834579 -0.65869,2.01787 0.574417,3.864381 l 1.085032,1.624777 0.05069,1.659514 c 0.08787,2.877844 0.265059,5.688737 0.462676,7.340152 l 0.190939,1.595687 h -0.378915 c -0.283152,0 -0.415867,-0.435561 -0.525132,-1.723341 -0.08042,-0.947837 -0.221395,-1.916897 -0.313259,-2.153464 -0.156141,-0.402098 -3.407576,-2.505939 -3.872851,-2.505939 -0.116427,0 -1.605137,2.383954 -3.308228,5.297678 l -3.096526,5.297677 0.544456,0.285383 c 0.299466,0.156955 1.146294,0.426601 1.881872,0.599204 0.735578,0.172606 1.597249,0.517267 1.914823,0.765932 0.317574,0.248656 1.021876,0.752899 1.565119,1.120524 l 0.987714,0.668409 -0.399652,0.153367 c -0.240815,0.09239 -0.876929,-0.211053 -1.600494,-0.76355 C 41.195851,42.926965 40.184444,42.388098 39.60874,42.233787 39.033036,42.079485 38.13,41.774833 37.601994,41.5568 c -0.528008,-0.21802 -0.997206,-0.34972 -1.042665,-0.292652 -0.292259,0.366964 -4.631057,8.013377 -4.613001,8.129638 0.05389,0.346999 3.42064,2.032007 4.659096,2.331811 l 1.362443,0.329823 2.204558,-0.424994 2.204559,-0.424995 2.560431,1.639501 c 1.408239,0.901725 2.640634,1.646688 2.738661,1.655472 0.09804,0.0088 0.855172,-0.547389 1.682547,-1.235939 z M 36.053241,40.337347 c 3.855165,-6.594625 7.288795,-12.469461 7.630287,-13.055189 L 44.304426,26.2172 40.411974,23.994344 c -2.140851,-1.222571 -3.970682,-2.267497 -4.066294,-2.322059 -0.09562,-0.05455 -0.24377,0.01387 -0.329243,0.152251 -0.08546,0.13829 0.825897,0.884494 2.02527,1.658219 2.403515,1.550533 3.198623,2.556135 3.200088,4.04729 0.0019,1.994325 -1.273891,3.242518 -3.314374,3.242518 h -1.0429 l 0.264306,0.493838 c 0.383848,0.717223 0.323816,2.224822 -0.123001,3.088856 -0.524471,1.014214 -1.71601,1.590425 -3.066334,1.48283 l -1.091636,-0.08699 0.23014,0.430009 c 0.353278,0.660052 0.273715,2.191875 -0.157136,3.025031 -0.522085,1.009603 -1.716935,1.59068 -3.049091,1.482829 l -1.074391,-0.08697 0.467263,0.765928 c 0.611618,1.002556 0.594387,2.455648 -0.04396,3.706901 -1.024843,2.008857 -3.185846,2.359598 -5.353052,0.868823 -0.730343,-0.502389 -1.358315,-0.87578 -1.39549,-0.829758 -0.03718,0.04602 -0.378835,0.623074 -0.759243,1.282332 l -0.691652,1.198655 1.611702,1.022012 c 0.886436,0.562107 2.588261,1.652811 3.781832,2.423788 1.193574,0.77098 2.268893,1.375934 2.3896,1.344344 0.120708,-0.03161 3.373688,-5.453038 7.228854,-12.047663 z m -7.589698,4.607022 0.651996,-0.651999 V 43.16985 42.047326 L 28.478202,41.368909 C 28.127663,40.995781 26.35368,39.579129 24.536015,38.220796 L 21.23117,35.7511 h -1.09438 -1.094377 l -0.707905,0.707905 -0.707906,0.707903 v 1.116287 c 0,0.755363 0.165097,1.301281 0.510622,1.688443 0.602264,0.674844 6.27152,4.998034 7.243289,5.523494 0.913328,0.493862 2.283105,0.249169 3.08303,-0.550763 z m 3.574335,-5.872125 0.651999,-0.651996 v -1.122524 c 0,-1.518991 -0.396091,-1.8935 -5.276025,-4.988562 -4.587622,-2.909668 -5.121098,-3.162473 -6.233251,-2.953833 -1.897406,0.355955 -2.739183,2.910624 -1.421302,4.313445 0.580981,0.618424 7.155611,4.911207 8.973275,5.858932 1.140942,0.594886 2.433001,0.416844 3.305304,-0.455462 z m 4.084956,-4.595575 0.651996,-0.651996 V 32.70215 c 0,-0.825886 -0.158071,-1.290772 -0.598133,-1.759207 -0.328975,-0.350177 -2.73048,-2.05405 -5.336677,-3.786388 l -4.738545,-3.149699 h -1.104089 -1.10409 l -0.707903,0.707901 -0.707905,0.707906 v 1.116288 c 0,0.755498 0.165036,1.301075 0.510618,1.688029 0.543083,0.608091 9.22197,6.495881 10.164633,6.895723 0.872539,0.3701 2.254573,0.06947 2.970095,-0.646034 z m 11.258143,-5.285258 c -0.139496,-0.604782 -0.256436,-1.622693 -0.259874,-2.262026 l -0.0063,-1.162424 -0.817671,-1.111861 -0.817675,-1.111864 -0.206921,0.74243 c -0.113803,0.408333 -0.143868,1.008514 -0.06682,1.33373 0.09164,0.386758 -0.124811,1.05431 -0.625703,1.929797 l -0.765812,1.338498 0.504325,0.431815 c 0.277393,0.237498 0.675344,0.431817 0.884371,0.431817 0.209032,0 0.380045,0.120439 0.380045,0.267624 0,0.147184 0.37339,0.424987 0.829758,0.617311 l 0.829754,0.34968 0.196036,-0.347469 c 0.107833,-0.191121 0.0819,-0.84229 -0.0576,-1.44707 z M 39.95248,29.37047 40.604476,28.718474 V 27.580291 26.442109 L 39.838547,25.703202 C 38.967966,24.86333 30.885212,19.66524 29.820239,19.260342 28.060791,18.591399 26.307134,19.82156 26.307134,21.724721 v 1.123413 l 0.765929,0.741142 c 0.771673,0.746702 8.805088,5.962427 9.886281,6.418707 0.894819,0.377623 2.271142,0.08449 2.993136,-0.637513 z m 4.113904,-5.670982 -0.398192,-0.307357 -0.330833,0.435014 -0.330836,0.435012 0.583427,0.473374 0.583427,0.473371 0.145586,-0.601028 c 0.09285,-0.383289 0.0013,-0.712374 -0.252606,-0.908386 z m -1.866222,-1.340873 c 0.645591,-1.130623 0.686062,-1.513929 0.304804,-2.886805 l -0.266809,-0.960705 -1.766088,-0.889385 -1.766091,-0.889388 -1.138951,1.965081 -1.138952,1.965086 2.343505,1.345363 c 1.288927,0.739951 2.458395,1.347933 2.598812,1.351071 0.140431,0.003 0.513812,-0.447004 0.829758,-1.000318 z m -0.06384,-5.117474 c -0.08679,-0.14043 -0.29461,-0.25354 -0.461857,-0.251399 -0.182708,0.0023 -0.151226,0.102676 0.07889,0.251399 0.490482,0.316975 0.578864,0.316975 0.382964,0 z m 2.777229,-0.641701 c 0.508619,-0.2125 0.924763,-0.551379 0.924763,-0.753029 0,-0.201644 0.733736,-0.890223 1.630528,-1.530157 0.896791,-0.639937 1.915368,-1.536966 2.263505,-1.993397 l 0.632973,-0.829872 0.185934,-3.2234644 c 0.123815,-2.1466218 0.09746,-3.2781307 -0.07886,-3.3871045 -0.349261,-0.2158472 -5.266263,2.0291183 -6.470099,2.9540778 -1.101434,0.8462787 -1.19699,0.8636991 -1.61346,0.294159 L 42.074433,7.70068 41.339455,8.8032615 c -0.404239,0.6064207 -0.935432,1.4030805 -1.180429,1.7703495 -0.310717,0.465796 -0.445853,1.17704 -0.446791,2.351537 l -0.0013,1.683772 0.446793,0.404341 0.44679,0.404342 0.03606,-0.683909 c 0.01991,-0.376149 0.161568,-1.143466 0.314987,-1.705148 0.153427,-0.561679 0.339075,-1.33173 0.412567,-1.711221 0.07349,-0.379491 0.406531,-1.007255 0.740077,-1.3950252 l 0.606453,-0.7050445 0.658124,0.2998586 0.658123,0.2998587 1.222872,-0.968729 C 45.92636,8.315443 46.634332,7.6880996 46.827051,7.4541407 47.044165,7.190559 47.553986,7.0287638 48.167427,7.0287638 h 0.989975 v 1.6353851 c 0,1.8216691 -0.750942,3.6280651 -1.65934,3.9915441 -0.280922,0.112416 -1.362621,1.01779 -2.403748,2.011954 -1.041127,0.994167 -2.017686,1.809335 -2.170133,1.811485 -0.361432,0.0051 0.399495,0.497679 0.776712,0.5028 0.158373,0.0021 0.7041,-0.169952 1.212722,-0.382483 z m 0.245369,-3.251773 c 0.838862,-0.807416 1.658249,-1.46803 1.820861,-1.46803 0.48831,0 1.411632,-2.0197002 1.411632,-3.0878432 0,-1.1424525 -0.412531,-1.3025887 -1.173151,-0.4553837 -0.591456,0.6587865 -3.311868,2.7772979 -3.566367,2.7772979 -0.100507,0 -0.323883,-0.19305 -0.496404,-0.428978 l -0.313675,-0.428974 -0.335969,0.620457 c -0.184788,0.341254 -0.419659,1.080017 -0.52195,1.641699 -0.102285,0.56168 -0.268316,1.451101 -0.368967,1.97649 -0.11899,0.621201 -0.07554,1.084725 0.124298,1.325495 l 0.307276,0.370244 0.793611,-0.687222 c 0.436489,-0.377971 1.479953,-1.347833 2.318814,-2.155252 z"
       id="path1" /><path
       style="fill:#00ff66;stroke-width:0.223841"
       d="m 136.87197,81.833235 c -0.75946,0.07145 -1.05092,0.995632 -0.37162,1.418682 5.19771,5.082299 12.43054,7.817854 16.92582,13.657817 3.23378,4.272466 3.07859,10.544036 0.0599,14.871456 -2.86196,3.87645 -8.06996,4.63267 -12.56303,4.52339 -0.49231,0.0477 -1.83659,-0.19528 -1.142,0.70059 2.43662,4.59237 1.93869,10.64764 -1.25036,14.7543 -3.01159,3.48858 -8.01022,4.0132 -12.33357,3.46254 -0.49151,0.12636 -1.55081,-0.39358 -1.7715,0.16001 1.01633,2.10618 1.65171,4.41871 1.43792,6.77251 -0.14643,3.84992 -1.67783,7.96549 -5.23407,9.89358 -2.09964,1.55167 -4.73174,1.60831 -7.22453,1.51592 -1.44151,0.10745 -3.13588,-0.21427 -4.42437,0.15112 1.96559,2.76631 3.55919,6.01685 3.23827,9.49392 -0.0503,5.6559 -3.29078,11.60712 -8.89638,13.43626 -2.26802,0.32558 -4.663507,0.34469 -6.905419,-0.11105 -4.082236,-1.00987 -7.170223,-4.0573 -10.879038,-5.8461 -1.028359,-0.34251 -1.232218,1.268 -1.785047,1.78199 -1.373958,2.47501 -3.006359,4.8932 -4.021274,7.52141 8.44638,5.51543 16.956746,10.96778 25.549848,16.26079 1.165,0.53938 2.30097,1.56279 3.58887,1.66663 2.50879,-3.06809 4.31191,-6.6712 6.45118,-10.00378 17.02913,-28.49783 33.74096,-57.18551 50.41763,-85.8908 0.42284,-0.9716 1.3464,-1.93035 1.50918,-2.922178 -9.73038,-5.867581 -19.64016,-11.448717 -29.58413,-16.948138 -0.25891,-0.100038 -0.50285,-0.340074 -0.79227,-0.320869 z"
       id="path2"
       transform="scale(0.26458333)" /><path
       style="fill:#00ff66;stroke-width:0.223841"
       d="m 136.62583,81.81225 c -1.07838,0.242216 -0.4114,1.544695 0.20164,1.928357 5.10597,4.670315 11.7976,7.503654 16.22313,12.91784 3.98673,4.931943 3.34824,13.128733 -1.73082,17.070863 -3.13177,2.36769 -7.20605,2.21153 -10.91401,2.49417 -1.24519,0.17579 -0.35197,1.68149 -0.12018,2.32945 1.55746,4.37804 1.04818,9.75741 -2.09593,13.34075 -3.15461,3.40827 -8.15142,3.54127 -12.4726,3.2527 -0.39502,0.0729 -1.70902,-0.26025 -1.25386,0.56266 1.61934,3.48532 1.54108,7.60313 0.30341,11.196 -1.43405,4.02289 -5.59498,6.67669 -9.8136,6.51807 -1.93885,0.13371 -3.96995,-0.13552 -5.86141,0.21553 0.51038,1.65982 1.75574,3.08956 2.25721,4.79816 1.21146,3.31297 0.77358,7.06222 -0.38429,10.34829 -1.39097,3.64449 -4.39202,7.09394 -8.3652,7.78898 -3.442841,0.41148 -7.072792,0.0626 -10.065421,-1.8397 -2.515696,-1.27552 -4.682767,-3.31062 -7.387638,-4.17035 -1.1614,0.50417 -1.417356,2.09715 -2.172619,3.03239 -1.122385,2.14425 -2.608282,4.18764 -3.340348,6.49223 9.057931,5.82819 18.080918,11.78348 27.374966,17.25404 0.65855,0.3249 1.63974,1.06258 2.20138,0.19116 2.5543,-3.07462 4.31706,-6.72689 6.48174,-10.07549 17.32101,-28.94201 34.29362,-58.09342 51.22797,-87.26209 0.36967,-0.494672 0.59846,-1.182977 -0.19255,-1.415353 -9.13195,-5.735235 -18.58288,-10.953294 -28.03175,-16.144554 -0.66754,-0.294868 -1.32492,-0.762767 -2.06922,-0.824103 z"
       id="path3"
       transform="scale(0.26458333)" /><path
       style="fill:#00ff66;stroke-width:0.223841"
       d="m 136.4938,81.636499 c -1.087,0.226571 -0.47231,1.694048 0.15695,2.128679 5.20124,4.927397 12.18845,7.803735 16.61103,13.56863 3.39088,4.823942 2.69426,12.356122 -2.02069,16.163352 -3.2834,2.48841 -7.61078,1.9685 -11.4194,2.76304 -0.72838,0.47187 0.14217,1.57137 0.19305,2.22479 0.95036,2.83304 1.05735,5.97337 0.35343,8.86585 -0.93946,3.3236 -3.45459,6.2703 -6.91722,7.03614 -2.89273,0.88021 -5.94836,0.37723 -8.89376,0.7253 -0.66624,0.45944 0.15204,1.45555 0.23784,2.06484 1.10833,4.30504 0.83689,9.46719 -2.30312,12.9229 -2.15061,2.35934 -5.34104,3.18886 -8.43216,3.09094 -1.70112,0.16793 -3.56196,-0.0891 -5.17538,0.37773 0.63907,2.19957 2.29294,4.09697 2.66948,6.43063 0.96383,5.77814 -1.14947,12.63901 -6.60987,15.4774 -2.24501,1.27466 -4.994184,0.9212 -7.474206,0.76727 -4.514924,-0.55398 -7.790195,-4.07376 -11.848725,-5.74468 -1.287709,-0.42403 -1.594553,1.42726 -2.247594,2.11076 -1.283784,2.34134 -2.91877,4.57924 -3.795684,7.10084 0.555123,1.28421 2.168521,1.76026 3.189123,2.62713 8.000589,5.10821 15.906014,10.38945 24.140366,15.11556 0.82702,0.55583 2.08409,0.99708 2.71858,-0.0885 3.61664,-4.96042 6.48411,-10.42637 9.7213,-15.63593 15.87028,-26.62906 31.4972,-53.40424 47.02392,-80.23502 0.2382,-0.76106 1.1402,-1.524671 0.95775,-2.342048 -3.81488,-2.911194 -8.14082,-5.105308 -12.24548,-7.583246 -5.8445,-3.271503 -11.58914,-6.752836 -17.6076,-9.69538 -0.31414,-0.117758 -0.64069,-0.246267 -0.98193,-0.236957 z"
       id="path4"
       transform="scale(0.26458333)" /><path
       style="fill:#b3b3b3;stroke-width:0.223841"
       d="m 146.10586,63.286758 c -2.71804,4.814303 -5.75092,9.474045 -8.1536,14.454378 -0.31891,1.043278 1.33874,1.187224 1.87724,1.757327 5.40182,3.031778 10.681,6.345917 16.33916,8.879944 1.40065,-0.240661 2.05756,-1.878953 2.86578,-2.892012 1.63914,-2.636255 3.25747,-5.721557 2.42291,-8.920426 -0.4505,-2.300549 -1.04905,-4.60833 -1.79379,-6.81011 -4.45947,-2.181133 -8.84931,-4.526327 -13.37233,-6.564408 z"
       id="path5"
       transform="scale(0.26458333)" /><path
       style="fill:#ff0000;stroke-width:0.223841"
       d="m 164.89191,88.323758 c -0.68668,1.168346 -1.99799,2.166781 -2.22486,3.539054 1.30733,1.263627 2.77806,2.45477 4.2578,3.471289 0.69037,-1.526465 1.2169,-3.631088 0.2986,-5.202999 -0.64689,-0.679329 -1.44605,-1.641939 -2.33154,-1.807344 z"
       id="path6"
       transform="scale(0.26458333)" /><path
       style="fill:#ff6600;stroke-width:0.223841"
       d="m 181.22009,29.400594 c -1.88582,0.552919 -3.01691,2.430539 -4.54091,3.561347 -3.75441,3.146858 -7.5023,6.410439 -11.70901,8.909062 -1.24913,-0.795405 -2.10841,-2.147533 -3.06645,-3.234332 -2.95005,4.460489 -3.59376,10.033993 -4.57314,15.216533 -0.38301,2.303983 -0.90178,5.094512 0.99944,6.911004 0.32402,0.826514 1.03579,0.432464 1.43666,-0.09581 5.6546,-4.791467 10.74146,-10.270788 16.56606,-14.830336 1.28016,-0.76577 2.77762,-1.410877 3.44855,-2.874088 2.09888,-3.765348 3.98426,-8.241889 2.81988,-12.608124 -0.2032,-0.585484 -0.74005,-1.027167 -1.38108,-0.95526 z"
       id="path8"
       transform="scale(0.26458333)" /><path
       style="fill:#ffcc00;stroke-width:0.223841"
       d="m 190.27036,18.265363 c -4.26324,0.990358 -8.2021,3.054304 -12.1941,4.80297 -5.20154,2.370539 -10.21753,5.145552 -14.84917,8.502473 -0.76265,0.644779 -1.91915,0.584702 -2.41853,-0.389537 -0.64665,-0.685611 -1.12385,-1.551913 -1.83095,-2.148789 -2.49414,3.478307 -4.89099,7.128805 -7.17865,10.78348 -2.40722,3.741457 -1.49638,8.387968 -1.79901,12.575565 0.14234,1.286754 -0.6118,2.984946 0.84648,3.71718 0.84392,0.609388 1.54917,1.706369 2.59679,1.916035 0.62632,-1.093347 0.13111,-2.56787 0.49568,-3.782793 0.85526,-4.61225 1.85951,-9.276788 3.42897,-13.690383 1.08931,-1.982403 2.51885,-3.909391 4.1861,-5.420283 1.69461,0.503305 3.23724,1.683555 4.95598,1.961672 4.08191,-2.851344 7.725,-6.27993 11.56106,-9.43631 2.25243,-1.349612 5.02383,-0.797886 7.51748,-1.099533 0.0197,5.672086 0.33445,11.660525 -2.32148,16.874663 -0.96484,2.302635 -2.94743,3.901574 -5.06198,5.100197 -5.7302,4.293072 -10.50215,9.772406 -16.28863,13.962162 -0.0731,0.763597 1.12362,0.998619 1.65782,1.367968 2.37932,0.928051 4.86052,-0.511768 7.02783,-1.401632 1.46787,-0.631113 2.54382,-1.825117 3.27193,-3.209848 4.11715,-4.715587 10.03741,-7.505072 13.97784,-12.431063 0.79933,-1.175838 2.14863,-2.124218 2.52827,-3.513259 0.65304,-7.683975 1.14204,-15.408121 0.97144,-23.122982 -0.0738,-0.695251 -0.0721,-1.981277 -1.08117,-1.917953 z"
       id="path9"
       transform="scale(0.26458333)" /><path
       style="fill:#ffffff;stroke-width:0.223841"
       d="m 71.816336,135.05894 c -1.768128,1.83267 -3.679938,3.571 -5.359513,5.46181 0.321955,3.11501 -0.429687,6.57516 1.17167,9.42976 2.315405,3.19987 5.809108,5.27973 8.769681,7.82152 6.28551,4.83011 12.4989,9.79679 19.163703,14.09787 2.757871,1.56247 6.328103,1.45764 9.150393,0.11236 2.08875,-1.04042 3.81523,-2.70951 5.39361,-4.37146 -0.0387,-2.97691 0.0765,-5.98387 -0.0568,-8.94229 -5.65773,-5.96466 -12.524099,-10.58408 -18.977677,-15.62018 -3.597803,-2.6733 -7.149231,-5.43771 -10.780535,-8.04798 -2.820251,0.04 -5.673835,-0.0789 -8.474492,0.0586 z"
       id="path10"
       transform="scale(0.26458333)" /><path
       style="fill:#ffffff;stroke-width:0.223841"
       d="m 81.706887,110.63444 c -5.025448,-0.006 -9.168737,4.50338 -9.531181,9.37336 -0.30012,3.48951 1.339437,7.1482 4.404292,8.95708 9.664624,6.87332 19.650581,13.30141 29.839862,19.36824 2.716,1.73399 5.96291,3.01522 9.2239,2.29897 3.39068,-0.46963 5.88939,-3.07751 8.11644,-5.42072 -0.0687,-3.53653 0.48236,-7.71769 -2.22792,-10.49869 -3.94911,-4.10516 -9.01701,-6.89193 -13.6919,-10.06808 -7.17919,-4.48992 -14.181534,-9.34408 -21.819781,-13.03705 -1.352884,-0.62875 -2.814341,-1.01372 -4.313712,-0.97311 z"
       id="path11"
       transform="scale(0.26458333)" /><path
       style="fill:#ffffff;stroke-width:0.223841"
       d="m 90.171324,90.738359 c -1.768129,1.832671 -3.679939,3.571 -5.359513,5.461815 0.287186,3.176722 -0.360807,6.678826 1.225881,9.595446 1.777849,2.31441 4.475458,3.70603 6.723704,5.51086 10.271554,7.24565 20.613444,14.42236 31.364734,20.94264 2.46999,1.56861 5.67529,1.31819 8.38049,0.57141 2.75049,-0.85567 4.78873,-3.07433 6.69863,-5.08715 -0.0869,-3.69817 0.45623,-8.17131 -2.52609,-10.97259 -5.47727,-4.63365 -11.61917,-8.40766 -17.49805,-12.50088 -6.76932,-4.535671 -13.52545,-9.115004 -20.332001,-13.580134 -2.887839,0.04075 -5.809484,-0.07942 -8.677785,0.05858 z"
       id="path12"
       transform="scale(0.26458333)" /><path
       style="fill:#ffffff;stroke-width:0.223841"
       d="m 108.65965,71.970664 c -4.62912,0.11702 -8.798369,3.943976 -9.187982,8.582916 -0.218609,1.954418 -0.341864,3.962189 -0.283737,5.906 6.162339,5.92854 13.654909,10.169698 20.693279,14.93688 6.41557,4.0886 12.73268,8.36943 19.42284,12.00015 3.70987,1.52932 8.22461,0.59856 11.30304,-1.89885 1.02406,-0.86 2.05792,-1.76896 2.924,-2.76772 -0.0415,-2.98886 0.0822,-6.01132 -0.0612,-8.979445 -5.24675,-5.384655 -11.88791,-9.063892 -18.04124,-13.279391 -7.14133,-4.569549 -14.21792,-9.277908 -21.67398,-13.323624 -1.58552,-0.752124 -3.32706,-1.248778 -5.09502,-1.176916 z"
       id="path13"
       transform="scale(0.26458333)" /><path
       style="fill:#ffffff;stroke-width:0.223841"
       d="m 179.90852,74.806716 c -2.99329,-0.130026 -6.45267,1.212358 -7.38895,4.313317 -1.31518,3.882556 1.08426,7.716832 2.95715,10.963415 1.5233,2.636586 3.49293,5.082006 4.89933,7.728558 0.28179,12.983064 0.95299,25.966254 2.4717,38.867154 0.1056,0.49633 -0.007,1.03432 -0.64355,0.77995 -1.7821,-0.22109 -1.72122,-2.48462 -2.03001,-3.84321 -0.4705,-3.56802 -0.6876,-7.22437 -1.41067,-10.76025 -3.55512,-3.44491 -7.88545,-5.97984 -12.16326,-8.41499 -1.01064,-0.20111 -2.37139,-1.98029 -3.14516,-0.68304 -3.69733,5.11922 -6.78026,10.66274 -10.07041,16.04926 -4.54692,7.79033 -9.2508,15.51813 -13.59317,23.41162 0.53226,1.20036 2.1717,1.41422 3.25088,1.96073 4.93488,1.80979 10.46794,2.42214 14.65396,5.87113 2.48195,1.83111 5.20679,3.5741 7.60608,5.37915 -1.76523,1.25795 -3.70097,-0.37394 -5.23564,-1.22483 -3.51549,-2.40224 -7.12081,-4.77395 -11.24975,-5.98534 -3.44552,-1.07772 -6.78772,-2.53001 -10.28595,-3.40131 -1.22226,0.57276 -1.59787,2.19532 -2.39955,3.21051 -5.03844,8.8106 -10.26997,17.52523 -14.89962,26.56039 -0.41876,0.66038 -0.67708,1.58019 0.20198,1.99446 4.11592,2.77977 8.67718,4.87302 13.25647,6.77076 2.9185,1.07068 5.9681,1.98518 9.0038,2.505 5.37173,-1.0088 10.7431,-2.14067 16.11758,-3.05848 6.97214,3.7563 13.34372,8.54948 20.31054,12.32526 1.86546,-0.79146 3.40776,-2.31139 5.05053,-3.50835 10.77051,-8.58516 19.21941,-19.82087 25.32535,-32.11689 0.72906,-1.61605 1.86413,-3.16907 2.34037,-4.82577 -1.86052,-1.87132 -4.44369,-3.64065 -4.54066,-6.56791 -0.72154,-10.4079 -2.72239,-20.67078 -3.91725,-31.02549 -1.22157,-8.84663 -2.02028,-17.807 -4.33821,-26.45538 -0.63641,-2.353939 -1.77057,-4.567946 -3.49184,-6.311713 -1.14958,-1.247327 -0.85522,-3.076299 -1.81433,-4.441851 -2.67684,-4.944324 -5.7168,-9.779764 -9.57325,-13.894297 -1.36977,-1.486268 -3.21048,-2.328591 -5.25449,-2.171563 z"
       id="path14"
       transform="scale(0.26458333)" /><path
       style="fill:#ffffff;stroke-width:0.223841"
       d="M 124.58824,22.690164 C 104.4477,22.560346 84.32606,28.4439 67.332516,39.231687 45.766158,52.904193 29.611294,74.76004 22.786819,99.359432 c -2.867287,10.129428 -4.251125,20.675518 -3.959837,31.204298 0.01522,14.57273 3.439498,29.07597 9.364563,42.35947 11.841163,26.52801 35.040299,47.80062 62.670146,56.90362 11.126669,3.84006 22.952679,5.44729 34.703209,5.06781 7.51362,-0.0185 15.07026,-0.35161 22.41257,-2.07821 22.85068,-4.90826 43.84351,-17.75012 58.72595,-35.75609 12.81749,-15.41362 21.40891,-34.468 23.82104,-54.4084 1.01937,-11.26317 0.75455,-22.67066 -0.91196,-33.85932 -1.63115,-9.272764 -5.09433,-18.12447 -8.97873,-26.662472 -3.96467,-8.502952 -9.06188,-16.500184 -15.46617,-23.379389 -0.56017,-0.393863 -1.15504,-1.75065 -1.96647,-1.299603 -1.57836,2.658646 -3.19202,5.370622 -4.39901,8.201685 3.02168,4.596084 6.66697,8.788739 9.32745,13.632023 5.11076,8.815728 8.72127,18.417042 11.55482,28.191076 0.74211,2.04655 1.28575,4.12291 1.04719,6.31677 -0.0437,11.09274 0.087,22.21142 -0.0652,33.28801 -3.45462,11.72931 -7.39775,23.50598 -14.20155,33.7826 -9.09831,14.47633 -22.207,26.37182 -37.49352,34.04402 -8.20604,4.33135 -17.16578,7.0737 -26.04691,9.62955 -12.0916,-0.044 -24.20958,0.0876 -36.28478,-0.0657 -9.670065,-2.85657 -19.354262,-5.95633 -28.18173,-10.90821 -17.152525,-9.24196 -31.206397,-23.94053 -39.843257,-41.38356 -4.163945,-8.06495 -6.850805,-16.79895 -9.31546,-25.48642 0.0455,-12.05892 -0.08511,-24.14443 0.07039,-36.18675 2.820564,-9.35251 5.693609,-18.77498 10.465434,-27.346784 9.386445,-17.72074 24.457161,-32.349832 42.522274,-41.037564 7.986747,-4.061135 16.646617,-6.558941 25.230309,-8.969987 10.30462,-0.338428 20.62362,-0.393316 30.91728,-0.983908 1.4968,-2.29439 2.97665,-4.712675 4.24337,-7.176037 0.52307,-1.093891 -0.99144,-1.384877 -1.74558,-1.409943 -5.41777,-0.878103 -10.94034,-0.864332 -16.41442,-0.891863 z"
       id="path15"
       transform="scale(0.26458333)" /></g></svg>
