<?xml version="1.0" encoding="UTF-8" standalone="no"?>
<!-- Created with Inkscape (http://www.inkscape.org/) -->

<svg
   width="250"
   height="250"
   viewBox="0 0 66.145832 66.145833"
   version="1.1"
   id="svg1"
   xml:space="preserve"
   sodipodi:docname="lighter_off_simplified.svg"
   inkscape:version="1.4.3 (0d15f75, 2025-12-25)"
   xmlns:inkscape="http://www.inkscape.org/namespaces/inkscape"
   xmlns:sodipodi="http://sodipodi.sourceforge.net/DTD/sodipodi-0.dtd"
   xmlns="http://www.w3.org/2000/svg"
   xmlns:svg="http://www.w3.org/2000/svg"><sodipodi:namedview
     id="namedview1"
     pagecolor="#ffffff"
     bordercolor="#000000"
     borderopacity="0.25"
     inkscape:showpageshadow="2"
     inkscape:pageopacity="0.0"
     inkscape:pagecheckerboard="0"
     inkscape:deskcolor="#d1d1d1"
     inkscape:document-units="mm"
     inkscape:zoom="3.1589646"
     inkscape:cx="275.88153"
     inkscape:cy="198.9576"
     inkscape:window-width="3840"
     inkscape:window-height="2054"
     inkscape:window-x="1609"
     inkscape:window-y="1609"
     inkscape:window-maximized="1"
     inkscape:current-layer="layer1" /><defs
     id="defs1"><filter
       style="color-interpolation-filters:sRGB;"
       inkscape:label="Color Shift"
       id="filter17"
       x="0"
       y="0"
       width="1"
       height="1"><feColorMatrix
         type="hueRotate"
         values="50"
         result="color1"
         id="feColorMatrix16" /><feColorMatrix
         type="saturate"
         values="0.170807"
         result="fbSourceGraphic"
         id="feColorMatrix17" /><feColorMatrix
         result="fbSourceGraphicAlpha"
         in="fbSourceGraphic"
         values="0 0 0 -1 0 0 0 0 -1 0 0 0 0 -1 0 0 0 0 1 0"
         id="feColorMatrix18" /><feColorMatrix
         id="feColorMatrix19"
         type="hueRotate"
         values="50"
         result="color1"
         in="fbSourceGraphic" /><feColorMatrix
         id="feColorMatrix20"
         type="saturate"
         values="0.170807"
         result="color2" /></filter><filter
       style="color-interpolation-filters:sRGB;"
       inkscape:label="Greyscale"
       id="filter23"
       x="0"
       y="0"
       width="1"
       height="1"><feColorMatrix
         values="0.21 0.72 0.072 -0.3 0 0.21 0.72 0.072 -0.3 0 0.21 0.72 0.072 -0.3 0 0 0 0 1 0 "
         id="feColorMatrix23"
         result="fbSourceGraphic" /><feColorMatrix
         result="fbSourceGraphicAlpha"
         in="fbSourceGraphic"
         values="0 0 0 -1 0 0 0 0 -1 0 0 0 0 -1 0 0 0 0 1 0"
         id="feColorMatrix41" /><feColorMatrix
         id="feColorMatrix42"
         values="0.21 0.72 0.072 -0.2 0 0.21 0.72 0.072 -0.2 0 0.21 0.72 0.072 -0.2 0 0 0 0 1 0 "
         in="fbSourceGraphic"
         result="fbSourceGraphic" /><feColorMatrix
         result="fbSourceGraphicAlpha"
         in="fbSourceGraphic"
         values="0 0 0 -1 0 0 0 0 -1 0 0 0 0 -1 0 0 0 0 1 0"
         id="feColorMatrix46" /><feColorMatrix
         id="feColorMatrix47"
         values="0.21 0.72 0.072 -0.2 0 0.21 0.72 0.072 -0.2 0 0.21 0.72 0.072 -0.2 0 0 0 0 1 0 "
         in="fbSourceGraphic" /></filter></defs><g
     inkscape:label="Layer 1"
     inkscape:groupmode="layer"
     id="layer1"
     style="filter:url(#filter23)"><path
       style="fill:#000000;stroke-width:3.01548"
       d="M 30.264497,62.569113 C 22.866482,61.742763 15.835839,58.064518 11.106615,52.28799 6.7357448,47.027409 4.209006,40.166018 4.6351288,33.297533 4.5342029,21.555095 13.029551,10.57563 24.096463,6.9869787 28.627117,5.3166812 33.579969,5.451964 38.306774,5.9635168 48.878789,7.9566783 57.92596,16.261311 60.66485,26.685709 c 1.163848,4.090925 0.981563,8.452273 0.535846,12.639451 -1.984209,10.196327 -9.709218,19.10366 -19.730303,22.063315 -3.596527,1.155997 -7.461461,1.278953 -11.205896,1.180638 z m 7.740308,-0.775647 C 49.571092,59.964893 59.185311,50.085679 60.815678,38.508495 62.597135,27.970723 57.812224,16.634616 48.842032,10.763272 38.85033,3.8892508 24.426297,4.5388573 15.145447,12.370946 6.3639996,19.4172 2.789973,32.009105 6.3135712,42.669779 9.7369287,54.00752 21.029235,62.522972 32.950749,62.138596 c 1.688915,-0.0045 3.385276,-0.06952 5.054056,-0.34513 z M 27.884202,59.221465 C 19.306224,57.485004 11.890258,51.114651 8.9804631,42.846575 7.1692137,38.70988 7.7252295,34.110433 7.7977777,29.72963 9.2965169,20.644919 16.086994,12.700752 24.83885,9.8097824 28.837011,8.1916682 33.236659,8.7694453 37.43457,8.8161661 46.519274,10.314914 54.463439,17.10538 57.354409,25.857233 c 1.618117,3.998164 1.040337,8.397815 0.993617,12.595729 -1.544436,9.366314 -8.721728,17.512416 -17.849299,20.177294 -3.726413,1.189338 -7.73178,0.974379 -11.586499,0.767283 l -0.533966,-0.07883 z m 12.194013,-0.981364 c 1.980402,-0.882474 5.704449,-1.696715 6.359025,-3.378118 -1.449808,-0.846423 -2.84179,-1.989079 -4.347092,-2.660077 -3.337769,0.230812 -7.016564,0.703634 -9.827205,-1.55125 -1.952197,-1.382264 -2.200629,4.874946 -4.746488,2.075542 -2.538465,-1.555333 -5.150387,-3.045206 -7.464382,-4.922065 0.30419,-1.262209 1.556733,-2.504488 1.706823,-3.634562 -1.451032,-1.3981 -3.194353,-2.503817 -4.499904,-4.030069 -1.343349,-2.619021 0.994106,-4.442572 2.762786,-5.414837 -2.590994,-1.501452 -1.596592,-6.166208 1.576813,-5.994895 1.525512,-0.464761 -0.965707,-3.942599 1.493806,-4.795588 0.953668,-1.038756 3.464255,0.242588 2.638362,-1.800201 -0.620084,-3.601949 4.02397,-4.621519 6.19517,-2.418994 1.024127,0.151613 2.739799,2.326285 3.406223,1.40979 0.929119,-1.796739 1.764841,-4.378014 3.380989,-5.33101 1.466873,0.619545 2.874137,1.367632 4.304409,2.06523 0.799675,1.697408 -0.372509,4.254915 1.602013,5.116706 1.446942,1.026428 -1.226433,-2.852685 0.860697,-3.460103 2.608881,-2.042165 4.771888,1.185592 6.022213,3.149186 1.972893,2.897289 3.00365,6.3419 3.02908,9.846142 0.445744,3.103273 1.500676,6.265336 0.950107,9.415754 1.288729,2.648603 1.76355,-0.849321 2.117507,-2.107902 0.514882,-3.543666 0.439764,-7.178172 0.14813,-10.739184 C 55.939429,20.223463 49.097462,12.659842 40.435119,10.039196 36.679265,8.7349859 32.614703,9.3084376 28.720849,9.3259335 19.584125,10.845007 11.70441,17.87417 9.021076,26.729369 7.7169047,30.485217 8.2902819,34.549766 8.307882,38.443605 c 1.5484117,9.324842 8.833572,17.366585 17.96374,19.842328 3.833317,1.145204 7.929521,0.78972 11.856608,0.439983 0.66095,-0.113759 1.309349,-0.293062 1.949985,-0.485815 z m 9.280493,-4.975886 C 52.41258,50.75854 54.61141,47.402418 56.280645,43.85815 54.252173,42.397168 55.226982,39.53031 54.510091,37.426607 53.873868,33.690872 53.833451,29.822381 52.643557,26.202694 51.226379,24.14163 50.521747,21.24524 48.21425,19.904608 c -3.845288,-0.752208 -2.463167,3.950453 -0.771726,5.551064 0.739393,2.798149 0.308483,5.798936 0.750993,8.66624 0.545697,1.218683 -0.287679,3.532397 -0.597668,0.987629 0.445038,-2.761799 -2.033958,-4.192006 -4.228443,-5.103198 -2.164907,3.236195 -4.218466,6.591589 -5.93183,10.087789 0.391028,2.083329 4.214047,1.282719 5.433342,3.278638 1.791631,2.146885 -2.679993,-1.327502 -3.742186,-1.279476 -3.191317,-2.421939 -3.91498,2.059102 -5.405852,4.063839 -0.937923,1.638265 -2.841605,3.83065 0.110962,4.420002 2.059812,1.22403 4.497717,1.710761 6.815146,0.961588 1.013579,-0.271586 2.017949,-0.495174 2.81513,0.361182 1.458244,0.812518 2.86908,2.166453 4.402028,2.50768 0.522982,-0.347328 1.0106,-0.744924 1.494562,-1.14337 z M 36.053307,40.337073 c 2.750498,-4.706675 5.50391,-9.411649 8.251219,-14.120186 -2.712522,-1.500002 -5.377621,-3.18705 -8.127146,-4.541149 0.891128,2.121214 5.552894,2.897529 5.050018,6.219069 0.338728,2.677856 -3.340552,2.559096 -4.078507,3.371296 1.297003,2.780064 -1.542438,5.201017 -4.13607,4.691281 1.184941,2.278337 -0.772707,5.371736 -3.442007,4.705317 -1.685026,-0.261682 1.405483,2.746528 -0.119863,3.934429 -0.876308,3.030392 -4.704043,2.592051 -6.52103,0.7257 -0.553108,-0.197432 -2.787242,2.435959 -1.072675,2.789222 2.335234,1.400316 4.516685,3.085269 6.967118,4.272702 2.533711,-3.937049 4.842198,-8.019427 7.228943,-12.047681 z m -7.589712,4.607033 c 2.219952,-2.809616 -1.598322,-4.950515 -3.53883,-6.432772 -1.871237,-1.516637 -5.367215,-4.540655 -7.123127,-1.281388 -1.042169,3.204567 2.884151,4.451121 4.723443,6.24343 1.693105,1.224302 3.890364,3.507591 5.938514,1.47073 z m 3.574334,-5.872141 c 2.305838,-2.905605 -1.670034,-4.860584 -3.717793,-6.171784 -2.357593,-1.141776 -4.425725,-3.686148 -7.193657,-3.513415 -3.64337,1.121096 -1.496723,5.371417 1.247501,6.157403 2.380985,1.462536 4.617063,3.280768 7.233164,4.285728 0.871842,0.168382 1.809982,-0.122466 2.430785,-0.757932 z m 4.084977,-4.595585 c 2.336897,-2.981538 -1.841017,-4.944326 -3.850609,-6.35743 -2.56124,-1.349332 -4.781101,-4.080016 -7.829461,-4.067696 -3.753467,1.113725 -1.364489,5.437086 1.344876,6.23676 2.554807,1.659582 4.971352,3.617876 7.714008,4.942249 0.917574,0.168308 1.94106,-0.108743 2.621186,-0.753883 z m 11.258161,-5.285272 c -0.04417,-1.82886 -0.564677,-4.710076 -1.944753,-5.493059 0.169172,1.987919 -1.408087,3.990182 -1.117731,5.621152 1.122771,0.357128 3.884961,3.289388 3.062484,-0.128093 z m -7.428506,0.179059 c 2.391984,-3.116554 -2.123807,-5.050362 -4.206391,-6.505846 -2.529899,-1.186154 -4.778825,-4.087133 -7.758788,-3.629801 -3.314694,1.4812 -1.059984,5.239485 1.502805,6.08213 2.581214,1.633064 5.055748,3.512226 7.825087,4.801671 0.922145,0.17549 1.953344,-0.09679 2.637287,-0.748154 z m 4.113925,-5.670997 c -2.538032,-0.305223 1.350991,3.035071 0,0 z m -1.866249,-1.340877 c 1.548252,-2.195221 -0.379359,-4.581039 -2.591069,-5.171507 -1.061627,-1.063335 -1.349351,0.471527 -1.872156,1.217159 -0.309998,0.758066 -1.236806,1.681673 -1.169188,2.338405 1.593828,0.883222 3.129242,1.889468 4.802674,2.616264 0.390731,-0.225479 0.598858,-0.635801 0.829739,-1.000321 z"
       id="path1" /><path
       style="fill:#00ff66;stroke-width:0.0592246"
       d="m 36.238217,21.623833 c 0.05267,1.6034 3.313342,2.299094 4.232431,3.908743 2.115163,2.456247 -0.538613,5.86416 -3.458695,5.327992 1.363274,2.746312 -1.030245,5.675726 -4.011313,5.010965 1.248817,2.730881 -1.256477,5.637186 -4.174879,4.735999 2.469385,2.719541 -0.672116,7.859861 -4.146589,5.74483 -1.485507,-1.404348 -2.853284,-1.484339 -3.401566,0.748061 0.784618,2.042084 4.632716,3.283725 6.688164,4.902756 2.142135,0.868204 2.698964,-3.636 4.121743,-4.870156 4.100928,-6.948006 8.196318,-13.899634 12.21995,-20.89281 -2.589458,-1.650989 -5.371624,-3.119313 -8.069246,-4.61638 z"
       id="path2" /><path
       style="fill:#b3b3b3;stroke-width:0.0592246"
       d="m 38.679384,16.755379 c -0.939511,1.811021 -3.654417,4.379726 -0.25327,5.0981 1.598973,1.209857 3.938072,2.292654 4.2901,-0.613045 0.535329,-2.76699 -2.028452,-3.617659 -4.03683,-4.485055 z"
       id="path3" /><path
       style="fill:#ff0000;stroke-width:0.0592246"
       d="m 43.749108,23.530011 c -2.192105,1.318401 2.486887,2.392106 0,0 z"
       id="path4" /><path
       style="fill:#ffffff;stroke-width:0.0592246"
       d="m 47.465919,19.797121 c -3.949645,0.685271 -0.426659,4.575722 0.213913,6.588811 0.144909,3.252859 0.399991,6.511386 0.599532,9.751968 -1.3629,-0.397566 0.0026,-4.594262 -2.672294,-4.941906 -3.341113,-3.265839 -4.31337,3.179799 -6.189506,5.11511 -1.630201,2.088753 -3.335216,5.509543 0.732546,5.447496 1.157833,0.177752 5.026859,3.431825 2.043734,1.850083 -1.858367,-0.857338 -5.606399,-3.979 -6.606484,-0.780741 -0.766252,2.251835 -3.893121,4.914419 -3.166708,7.011591 3.013752,2.490949 6.906726,2.026348 10.320263,1.643337 1.950451,0.664306 4.048035,3.983384 6.002015,2.325325 3.330094,-2.589032 5.842497,-6.118788 7.55591,-9.949082 -2.099299,-2.109763 -1.192549,-5.546994 -2.001086,-8.254097 -0.565076,-3.280632 -0.498025,-6.766192 -1.863831,-9.84548 -1.469305,-1.931039 -2.134113,-5.657865 -4.968004,-5.962415 z"
       id="path5" /><path
       style="fill:#ffffff;stroke-width:0.0592246"
       d="m 28.79395,19.045593 c -4.219904,0.636025 -2.284211,5.558851 0.781095,6.366962 2.995668,1.50969 5.630662,4.806719 9.132618,4.670128 3.536574,-1.024647 1.525966,-5.350403 -1.175933,-6.081747 -2.750061,-1.673577 -5.315416,-3.831292 -8.357484,-4.928081 z"
       id="path6" /><path
       style="fill:#ffffff;stroke-width:0.0592246"
       d="m 24.878761,24.001264 c -3.780705,0.184835 -2.522711,5.351415 0.474788,6.024922 3.037454,1.656131 5.647529,4.838139 9.147615,5.235353 3.907112,-0.659053 2.121021,-5.517004 -0.855637,-6.232596 -2.780601,-1.668087 -5.262432,-4.141889 -8.420317,-5.028742 z"
       id="path7" /><path
       style="fill:#ffffff;stroke-width:0.0592246"
       d="m 21.726782,29.278855 c -3.646547,0.104015 -3.101355,5.145632 -0.0093,5.854165 2.908849,1.549953 5.45786,4.513496 8.85648,4.736013 3.410344,-0.709562 2.238259,-5.048647 -0.489217,-5.837338 -2.740636,-1.565482 -5.27059,-4.008477 -8.357946,-4.75284 z"
       id="path8" /><path
       style="fill:#ffffff;stroke-width:0.0592246"
       d="m 19.951545,35.754587 c -3.240622,0.113451 -2.84312,4.636506 -0.266315,5.561764 2.184657,1.50799 4.099277,3.710895 6.678363,4.457457 4.024538,-0.02343 3.051305,-5.052536 0.131133,-6.11224 -2.087054,-1.317911 -3.975772,-3.738703 -6.543181,-3.906981 z"
       id="path9" /><path
       style="fill:#ffffff;stroke-width:0.223841;filter:url(#filter17)"
       d="M 124.07541,22.600977 C 83.667884,22.279856 44.500731,47.38044 28.216168,84.400642 9.898044,123.94969 18.707469,174.26442 50.183533,204.62856 c 22.443656,22.99499 55.793077,33.73996 87.524417,29.75731 44.08967,-4.09408 82.52411,-39.5581 91.14076,-82.83314 9.3147,-40.92971 -7.93849,-86.583745 -42.93044,-110.145387 C 167.90924,28.93416 145.976,22.281796 124.07541,22.600977 Z m 3.92116,10.510923 c 23.14347,-1.41632 45.46299,9.498263 62.46659,24.516738 15.68497,14.686534 26.97537,34.725367 29.96401,56.090852 0.46674,17.01296 2.00158,34.84241 -5.53148,50.68581 -12.83062,32.81473 -45.06638,58.44677 -80.67129,60.16546 -16.31031,1.1697 -33.10417,0.1187 -48.045984,-7.14582 C 56.01909,204.52174 33.126103,174.87808 29.445243,142.17917 29.242406,126.38393 27.594642,109.80721 34.427387,95.011303 46.183945,62.787421 76.398674,37.903858 110.44767,33.368619 c 5.83946,-0.371308 11.70079,-0.219577 17.5489,-0.256719 z"
       id="path10"
       transform="scale(0.26458333)" /></g></svg>
