<svg xmlns="http://www.w3.org/2000/svg" xml:space="preserve" width="250" height="250" viewBox="0 0 66.1 66.1"><defs><filter id="b" width="1" height="1" x="0" y="0" style="color-interpolation-filters:sRGB"><feColorMatrix result="color1" type="hueRotate" values="50"/><feColorMatrix result="fbSourceGraphic" type="saturate" values=".2"/><feColorMatrix in="fbSourceGraphic" result="fbSourceGraphicAlpha" values="0 0 0 -1 0 0 0 0 -1 0 0 0 0 -1 0 0 0 0 1 0"/><feColorMatrix in="fbSourceGraphic" result="color1" type="hueRotate" values="50"/><feColorMatrix result="color2" type="saturate" values=".2"/></filter><filter id="a" width="1" height="1" x="0" y="0" style="color-interpolation-filters:sRGB"><feColorMatrix result="fbSourceGraphic" values="0.21 0.72 0.072 -0.3 0 0.21 0.72 0.072 -0.3 0 0.21 0.72 0.072 -0.3 0 0 0 0 1 0"/><feColorMatrix in="fbSourceGraphic" result="fbSourceGraphicAlpha" values="0 0 0 -1 0 0 0 0 -1 0 0 0 0 -1 0 0 0 0 1 0"/><feColorMatrix in="fbSourceGraphic" result="fbSourceGraphic" values="0.21 0.72 0.072 -0.2 0 0.21 0.72 0.072 -0.2 0 0.21 0.72 0.072 -0.2 0 0 0 0 1 0"/><feColorMatrix in="fbSourceGraphic" result="fbSourceGraphicAlpha" values="0 0 0 -1 0 0 0 0 -1 0 0 0 0 -1 0 0 0 0 1 0"/><feColorMatrix in="fbSourceGraphic" values="0.21 0.72 0.072 -0.2 0 0.21 0.72 0.072 -0.2 0 0.21 0.72 0.072 -0.2 0 0 0 0 1 0"/></filter></defs><g style="filter:url(#a)"><path d="m30.3 62.6-2.3-.4A29.2 29.2 0 0 1 5 39.4c-.5-2-.5-8.6 0-10.5a29 29 0 0 1 22.8-23c2-.4 8.5-.4 10.5 0a29 29 0 0 1 22.9 23c.4 2 .4 8.4 0 10.4a29 29 0 0 1-31 23.3m7.7-.8A28 28 0 0 0 61.2 34C61.2 18.4 48.7 6 33 6S5 18.3 5 34a28 28 0 0 0 33 27.7m-10.1-2.6a26 26 0 0 1-19.5-18 18 18 0 0 1-.7-7.1c0-4.4 0-4.9.7-7 2.7-8.8 9-15 17.7-17.7a18 18 0 0 1 7-.7c4.4 0 4.8 0 7 .7 8.7 2.7 15 9 17.7 17.7.6 2.1.7 2.6.7 7s0 4.9-.7 7c-2.7 8.8-9 15-17.7 17.7-2 .5-2.9.6-6.4.7-3 0-4.5 0-5.8-.3m12.2-1c2.4-.7 7-2.9 6.6-3.2l-2.3-1.5-2.1-1.3-2.8.2c-3.2.2-4.7-.2-6.8-1.4q-1-.8-1.3-.8l-1 1.7c-.8 1.3-1 1.6-1.5 1.5-.7-.1-8.8-5.3-8.8-5.6l.9-1.9.9-1.6-1.2-1.1-2.2-1.8c-1.3-1-1.5-1.4-1.5-2.8q-.1-2.6 2-3 1.6-.5.7-1.2C19 34 18.5 33 18.5 32c0-2 1.3-3.3 3.1-3.3q1 .1.6-.4l-.3-1.5a3 3 0 0 1 3-3.4h1l-.2-1.3c-.3-3 2.5-4.6 5.3-3l2.7 1.6 1.4.9.4-1c.7-1.5 2.7-4.9 3-4.9l2.3 1L43 18l.3 1.3c.2.7.3 1.7.2 2.2q-.2 1 .8 1.4l1 .6-.4-.8c-.5-1-.3-2.3.6-3 .8-.9 2.6-1 3.4-.2a21 21 0 0 1 4.1 6c.7 1 1.5 4.7 1.5 6.5l.2 2c.6 1.9 1.1 6.6.9 7.3s-.2.8.3 1.3l.6.6.3-.7c1-2.5 1.2-3.9 1.2-8.4 0-4.3-.1-4.8-.8-6.9A25 25 0 0 0 40 10c-2-.6-2.5-.7-7-.7-4.3 0-4.8 0-6.9.7A25 25 0 0 0 9 27.1c-.7 2.1-.7 2.6-.7 7s0 4.9.7 7A25 25 0 0 0 28 58.7c1.2.3 2.8.4 5.7.3a19 19 0 0 0 6.4-.8m9.3-5q3.7-3 6-7.8l.9-1.5-.6-.6q-.7-.6-.7-1.6l-.3-3.2-.7-4.8c-.7-5.6-1.1-7.6-1.9-8.3q-.4-.3-.4-.8c0-.5-2-3.7-2.8-4.4-.8-.6-2.2-.5-2.8.1q-1.3 1.1.6 3.9c1 1.4 1 1.8 1.1 3.3 0 2.8.3 5.6.5 7.3q.1 1.8-.2 1.6-.4.1-.5-1.7l-.4-2.2c-.1-.4-3.4-2.5-3.8-2.5L40 35.3c-3.5 6-3.5 5.5-.7 6.2q1.3.3 1.9.8l1.6 1q1 .8.6.9-.6 0-1.6-.8a8 8 0 0 0-2.3-1.2l-2-.6q-.9-.4-1-.3c-.3.3-4.7 8-4.7 8 .1.4 3.5 2.1 4.7 2.4s1.7.3 3.6 0l2.2-.5 2.5 1.6 2.8 1.7zM36 40.4l7.6-13 .6-1-3.9-2.3-4-2.3-.4.1q.1.5 2 1.7c2.4 1.5 3.2 2.5 3.2 4q0 3.1-3.3 3.3-1.3-.1-.8.5c.4.7.4 2.2 0 3Q36 36 34 35.9q-1.4-.1-.9.4c.4.6.3 2.2-.2 3q-.9 1.6-3 1.5l-1-.1.4.8q.9 1.6 0 3.7c-1 2-3.2 2.3-5.4.8l-1.4-.8-.8 1.3-.7 1.2 1.7 1 6.1 3.8zM28.5 45q.7-.6.6-1.7c0-1.5-.3-1.8-4.6-5-3-2.2-3.4-2.4-4.4-2.4q-2.4.1-2.5 2.5 0 1 .5 1.7c.6.6 6.3 5 7.3 5.5s2.3.2 3-.6m3.5-5.8c1-1 1-2.6 0-3.6a88 88 0 0 0-9.3-6q-1.6-.6-3 .7c-.8.9-.8 2.6 0 3.5.6.6 7.2 4.9 9 5.8q2 .8 3.3-.4m4.1-4.6c1-1 1-2.6 0-3.6A68 68 0 0 0 25 24q-2.5.1-2.5 2.5 0 1.2.5 1.7c.5.6 9.2 6.5 10.2 7 .8.3 2.2 0 3-.7m11.3-5.3q-.3-1-.3-2.3t-.8-2.2l-.8-1.2-.2.8q-.2.7 0 1.3 0 .6-.7 2c-.8 1.3-.8 1.3-.3 1.7q.5.5.9.5t.4.2q.1.3.8.6 1.5.8 1-1.4m-7.4.2c1-1 .9-2.7-.2-3.7-.8-.8-9-6-10-6.4-2.6-1-4.8 2.3-2.7 4.3.7.7 8.8 6 9.9 6.4a3 3 0 0 0 3-.6m4-5.7q-.4-.3-.7.1-.4.4.3 1t.7-.2-.2-.9m-1.8-1.3c.6-1.2.7-1.6.3-3-.2-.8-.5-1-2-1.8l-1.8-.9-1.1 2-1.2 2 2.4 1.3 2.6 1.4z" style="fill:#000;stroke-width:3.01548"/><path d="M137 81.7c-1.1.1-1 1.6-.2 2 5.4 5 12.7 7.9 17 13.9 2.7 4 2.4 9.7-.2 13.7a12 12 0 0 1-10 4.8c-1.1.2-2.6 0-3.7.5 0 1.6 1.1 2.9 1.1 4.5.5 4.3-.3 9.4-4.2 12a13 13 0 0 1-9 2.2c-1 .1-2.2-.3-3 .3.2 1.7 1 3.4.9 5.2.2 4-1 8.8-4.8 11a12 12 0 0 1-7.9 1.7q-2-.1-4 0c1 2.3 2.8 4.6 3 7.3.8 5.8-1.7 12.3-7 15-4.3 2-9.4 1-13.2-1.5-2.3-1.2-4.3-3-6.7-3.8-.9.3-1 1.7-1.7 2.3l-4 7c1 1.1 2.7 1.7 4 2.7 7.9 5 15.7 10.3 23.8 15 .7.2 1.8 1 2.2 0q8.8-14 17.1-28.2 20.7-35 41-70.1c-.5-1-2-1.2-2.7-1.8q-13.7-8-27.8-15.7z" style="fill:#0f6;stroke-width:.223841" transform="scale(.265)"/><path d="M146.2 63.3q-3.7 5.8-7 12l-1.5 2.9q3.6 2.4 7.5 4.4c3.7 2 7.3 4.3 11.3 5.8 1.5-.9 2.3-2.7 3.3-4.2 1.5-2.4 2.4-5.3 1.6-8.2-.6-2.6-1.3-5.6-3.8-7q-5.5-3.1-11.3-5.7z" style="fill:#b3b3b3;stroke-width:.223841" transform="scale(.265)"/><path d="M165.4 89c-1.7.1-3.2 2.4-1.7 3.7.9.8 1.8 2 3 2.1 1.2-.8 1-2.6.9-3.9-.3-1-1.1-2-2.2-2" style="fill:red;stroke-width:.223841" transform="scale(.265)"/><path d="M179.4 74.8c-2.7-.1-5.4 1.2-6.6 3.6-1.6 3.7.3 7.7 2.2 11 2.2 3.7 5.4 7.4 5.3 12 .7 10.8 1 21.7 2.2 32.4 0 1.2.4 2.7-.5 3.6-1 .2-1.4-1.3-1.6-2.1-.8-4.1-.6-8.4-1.8-12.5-1.6-2.1-4.1-3.3-6.2-4.9-2.7-1.7-5.4-3.6-8.4-4.7-1.6 1.4-2.6 3.6-3.8 5.3q-9.2 14.9-17.6 30.2c-.8 1.6-1.9 3.6-1.2 5.5 1.5 1.8 4 1.8 6.1 2.5q5.9 1 10.6 4.7c2.2 1.6 4.7 3 6.5 5-.2.9-1.5.4-2 .2-4.3-2.1-7.8-5.5-12.3-6.9q-5.8-2-11.6-3.9c-1.2.2-1.5 1.8-2.2 2.6q-8.1 13.7-15.6 27.7c-.7 1 1 1.7 1.6 2.3a79 79 0 0 0 16 7.3c5.8 1.5 11.7-.3 17.5-1.2 1.4-.2 3-.8 4.3-.7 6.6 4.1 13 8.5 19.8 12.3 1.6-.5 2.8-1.8 4.1-2.7a95 95 0 0 0 26.6-33.5c.6-1.4 1.6-2.7 2-4.1-1.9-2-4.5-4-4.6-7-.4-8.7-2.2-17.2-3.2-25.8-1.4-9.9-2.2-19.8-4.5-29.5-.7-2.8-1.6-5.8-3.7-7.8-1.3-1.5-1.2-3.6-2.3-5.2a70 70 0 0 0-9.5-13.9 7 7 0 0 0-5.6-1.8M108.8 72c-6.3 0-11.3 7.1-9.2 13 1.3 4.2 5.4 6.2 8.6 8.6a535 535 0 0 0 29.2 18.7 10 10 0 0 0 7.5 1.7c3.7-.6 7.3-2.9 8.4-6.6 1.4-4.2-.4-9.2-4.2-11.5q-14.4-10.3-29.7-19.6c-3.3-1.8-6.7-4.4-10.6-4.3M94 90.7c-3.6 0-7.3 2-8.4 5.5-1 3-1 6.4.3 9.3 1.5 2.3 4 3.6 6.2 5.4q15 10.5 30.3 20.4c2 1.2 4 2.4 6.4 2 4.2 0 8.7-2.2 9.9-6.4 1.4-4.2 0-9.4-3.9-11.7a516 516 0 0 0-31.2-21.1c-3-1.8-6-3.6-9.6-3.4M82.1 110.7c-4.6 0-9.1 3.3-9.7 8-.8 3.9.7 8.2 4.2 10.2a449 449 0 0 0 30 19.5c3.4 2.4 8.1 3.3 12 1.3 4.7-2.4 6.6-8.7 4.2-13.4-1.5-3-4.8-4.5-7.4-6.5A448 448 0 0 0 87.2 112a10 10 0 0 0-5-1.3M75.4 135.1a8 8 0 0 0-7 3.3c-2.4 3.3-2.5 8-.7 11.6 2 2.9 5 4.7 7.7 7 6.6 5.1 13.2 10.4 20.3 15 4.9 2.6 12 .1 14-5.1q1.2-4-.2-8c-1.9-3.3-5.2-5.5-8.1-8A214 214 0 0 0 80.8 136c-1.7-1-3.6-1-5.4-1" style="fill:#fff;stroke-width:.223841" transform="scale(.265)"/><path d="M124 22.6a104.8 104.8 0 0 0-105.2 106q-.2 11.2 2.2 22.2a106 106 0 0 0 46 67.5 101 101 0 0 0 54.6 16.7c12.3.2 24.7-1 36.3-4.8 25-8 46.8-25.8 59.6-48.7a108 108 0 0 0 9.5-83 105 105 0 0 0-103-75.9m4 10.5c7.7 0 15.5-.1 23 2.4A99 99 0 0 1 199.2 67c10 12 16.8 26.5 20.5 41.6 1.2 7 .8 14 1 21-.1 6.3.1 12.8-1 19-2 9.7-5.8 19-10.5 27.6a97 97 0 0 1-49.1 42.8c-7.9 3-16 5.4-24.5 5.6-8 .3-16.3.7-24.4 0A96 96 0 0 1 39.4 174c-4.1-8.1-7.5-16.7-9.3-25.6-1.2-8.1-.8-16.4-.9-24.6.1-6.6 0-13.4 2.2-19.7 4.8-16.1 13-31.5 25-43.3a99 99 0 0 1 42.3-25c6.1-2.2 12.5-2.6 19-2.6z" style="fill:#fff;stroke-width:.223841;filter:url(#b)" transform="scale(.265)"/></g></svg>