<svg xmlns="http://www.w3.org/2000/svg" xml:space="preserve" width="250" height="250" viewBox="0 0 66.1 66.1"><path d="m30.3 62.6-2.3-.4A29.2 29.2 0 0 1 5 39.4c-.5-2-.5-8.6 0-10.5a29 29 0 0 1 22.8-23 46 46 0 0 1 9.7 0l1.2.1-.6.9-1 1.6-.2.7h-8.6l-2.2.7A25 25 0 0 0 9 27.1l-.7 2.3v9.4l.7 2.3a25 25 0 0 0 17.2 17.2l2.2.7h9.5l2.3-.7c2.5-.8 7-3 6.6-3.3l-2.3-1.5-2.1-1.3-2.8.2-2.7.1-1.4-.4c-.8-.2-2-.7-2.7-1.1q-1-.8-1.3-.8l-1 1.7-1 1.6H29c-.7-.2-8.8-5.4-8.8-5.7l.9-1.9.9-1.6-1.2-1.1-2.2-1.8c-1.3-1-1.5-1.4-1.5-2.8q-.1-2.6 2-3 1.6-.5.7-1.2C19 34 18.5 33 18.5 32q.2-3.1 3.1-3.3h.8l-.2-.4-.3-1.5a3 3 0 0 1 3-3.4h1l-.2-1.3c-.3-3 2.5-4.6 5.3-3l2.7 1.6 1.4.9.4-1a23 23 0 0 1 3-4.9l1.5.7q1.5.6 1 .2l-.6-.4q-.4 0-.9-.6l-.6-.6v-4.3l.5-.7 1.3-1.8.7-1h1q.8-.1 1.4-.5C45.1 6 49.7 4 50.2 4q.6 0 1 .2l.3.2-.2 3.8-.1 3.8-.8 1c-.4.5-1.5 1.4-2.3 2q-1.3 1-1.5 1.5c0 .5-1.8 1.3-2.9 1.3H43l.2.8.2 2.2v1.5l1 .5.9.6-.4-.8c-.5-1-.3-2.3.6-3 .8-.9 2.6-1 3.4-.2a21 21 0 0 1 4.1 6c.7 1 1.5 4.7 1.5 6.5l.2 2c.6 1.9 1.1 6.6.9 7.3l-.3.8.6.5.6.6.3-.7.7-2.2.5-1.6v-9.2l-.8-2.3c-.8-2.7-2.5-6-4-8.2L52 17.4l.5-.9 1-1.5.4-.5 1 1A31 31 0 0 1 61.1 29c.4 2 .4 8.4 0 10.4a29 29 0 0 1-31 23.3m7.7-.8a28.2 28.2 0 0 0 16.8-45.6l-1-1-.6 1-.6 1.2 1.2 1.6c1.5 2 3 5 4 8l.7 2.4v9.4l-.7 2.3c-2.7 8.8-9 15-17.7 17.7l-2.3.7h-9.5l-2.2-.7C17.3 56 11 49.8 8.4 41l-.7-2.3v-9.4l.7-2.3c2.7-8.8 9-15 17.7-17.7l2.2-.7h4.2l4.1-.2.7-1 .6-1.1-1-.2-3.7-.2A28 28 0 0 0 5 34a28 28 0 0 0 33 27.8m11.4-8.5q3.8-3.1 6-7.9l.9-1.5-.6-.6q-.7-.6-.7-1.6l-.3-3.2-.7-4.8c-.7-5.6-1.1-7.6-1.9-8.3q-.4-.3-.4-.8c0-.5-2-3.7-2.8-4.4-.8-.6-2.2-.5-2.8.1q-1.3 1.1.6 3.9l1 1.6.1 1.7c0 2.8.3 5.6.5 7.3l.2 1.6H48q-.4.1-.5-1.7l-.4-2.2c-.1-.4-3.4-2.5-3.8-2.5L40 35.3 37 40.6l.5.3 1.9.6q1.3.3 1.9.8l1.6 1 1 .7-.4.2q-.6 0-1.6-.8a8 8 0 0 0-2.3-1.2l-2-.6q-.9-.4-1-.3c-.3.3-4.7 8-4.7 8 .1.4 3.5 2.1 4.7 2.4l1.4.4 2.2-.5 2.2-.4 2.5 1.6c1.4 1 2.7 1.7 2.8 1.7zM36 40.3l7.6-13 .6-1-3.9-2.3-4-2.3-.4.1q.1.5 2 1.7c2.4 1.5 3.2 2.5 3.2 4q0 3.2-3.3 3.3h-1l.2.5c.4.7.4 2.2 0 3Q36 36 34 35.9h-1.1l.2.4c.4.6.3 2.2-.2 3q-.9 1.6-3 1.5l-1-.1.4.8q.9 1.6 0 3.7c-1 2-3.2 2.3-5.4.8l-1.4-.8-.8 1.3-.7 1.2 1.7 1 6.1 3.8zM28.5 45l.6-.6V42l-.6-.6-4-3.2-3.3-2.4H19l-.7.7-.7.7v1q0 1.2.5 1.8c.6.6 6.3 5 7.3 5.5s2.3.2 3-.6m3.5-5.8.7-.7v-1.1c0-1.5-.4-1.9-5.3-5-4.6-2.9-5.1-3.2-6.2-3-2 .4-2.8 3-1.4 4.4.5.6 7.1 4.9 9 5.8 1 .6 2.4.4 3.2-.4m4.1-4.6.7-.7v-1.1q0-1.1-.6-1.8l-5.4-3.7-4.7-3.2h-2.2l-.7.7-.7.7v1.1q0 1.2.5 1.7c.5.6 9.2 6.5 10.2 7 .8.3 2.2 0 3-.7m11.3-5.3q-.3-1-.3-2.3v-1.1l-.8-1.1-.8-1.2-.2.8q-.2.7 0 1.3 0 .6-.7 2l-.8 1.3.5.4q.5.5.9.5t.4.2q.1.3.8.6l.8.4.2-.4zm-7.4.2.6-.7v-2.3l-.8-.7c-.8-.8-9-6-10-6.4-1.7-.7-3.5.5-3.5 2.4v1.1l.8.8c.7.7 8.8 6 9.9 6.4a3 3 0 0 0 3-.6m4-5.7-.3-.3-.4.4-.3.5.6.4.6.5.1-.6q.1-.6-.2-.9m-1.8-1.3c.6-1.2.7-1.6.3-3l-.3-.9-1.7-.9-1.8-.9-1.1 2-1.2 2 2.4 1.3 2.6 1.4zm0-5.2-.5-.2q-.3 0 0 .2.7.6.4 0m2.7-.6q.9-.4 1-.8t1.6-1.5q1.5-1 2.2-2l.7-.8.2-3.2-.1-3.4c-.4-.2-5.3 2-6.5 3-1.1.8-1.2.8-1.6.2l-.3-.4-.8 1.1-1.1 1.8q-.6.6-.5 2.3v1.7l.5.4.4.4v-.7L41 13l.4-1.7q.1-.7.7-1.4l.6-.7.7.3.6.3 1.3-1 1.5-1.3q.4-.5 1.4-.5h1v1.7c0 1.8-.8 3.6-1.7 4-.3 0-1.4 1-2.4 2s-2 1.8-2.2 1.8.4.5.8.5zm.3-3.3L47 12c.5 0 1.4-2 1.4-3.1q0-1.7-1.2-.5c-.6.7-3.3 2.8-3.5 2.8l-.5-.4-.4-.4-.3.6q-.3.6-.5 1.6l-.4 2q-.1.9.1 1.3l.3.4.8-.7z" style="fill:#000;stroke-width:3.01547"/><path d="M136.9 81.8c-.8.1-1 1-.4 1.5 5.2 5 12.4 7.8 17 13.6a13 13 0 0 1 0 14.9c-2.9 3.9-8 4.6-12.6 4.5-.5 0-1.8-.2-1.1.7a14 14 0 0 1-1.3 14.8c-3 3.4-8 4-12.3 3.4-.5.1-1.6-.4-1.8.2a13 13 0 0 1 1.5 6.8c-.2 3.8-1.7 8-5.3 9.8-2 1.6-4.7 1.7-7.2 1.6-1.4 0-3.1-.3-4.4.1 2 2.8 3.5 6 3.2 9.5 0 5.7-3.3 11.6-8.9 13.4q-3.4.6-6.9 0c-4-1-7.2-4.1-10.9-6-1-.3-1.2 1.4-1.7 1.9q-2.3 3.6-4 7.5 12.6 8.3 25.5 16.3c1.1.5 2.3 1.5 3.6 1.6 2.5-3 4.3-6.7 6.4-10q25.5-42.8 50.4-85.9c.5-1 1.4-2 1.5-2.9a911 911 0 0 0-29.5-17q-.4-.1-.8-.3" style="fill:#0f6;stroke-width:.223841" transform="scale(.265)"/><path d="M136.6 81.8c-1 .3-.4 1.6.2 2 5.1 4.6 11.8 7.4 16.3 12.9 4 4.9 3.3 13-1.8 17-3.1 2.4-7.2 2.2-10.9 2.5-1.2.2-.3 1.7-.1 2.4 1.5 4.3 1 9.7-2.1 13.3-3.2 3.4-8.2 3.5-12.5 3.2-.4.1-1.7-.2-1.2.6 1.6 3.5 1.5 7.6.3 11.2-1.5 4-5.6 6.7-9.8 6.5-2 .2-4-.1-6 .2.6 1.7 1.8 3.1 2.3 4.8 1.3 3.3.8 7.1-.3 10.4-1.4 3.6-4.4 7-8.4 7.8q-5.3.8-10-1.9c-2.6-1.2-4.7-3.3-7.5-4.1-1.1.5-1.4 2-2.1 3-1.1 2.1-2.6 4.2-3.4 6.5 9 5.8 18.1 11.8 27.4 17.2.7.4 1.6 1.1 2.2.2 2.6-3 4.3-6.7 6.5-10q25.9-43.5 51.2-87.3.8-1-.2-1.4-13.8-8.5-28-16.2-1-.5-2-.8" style="fill:#0f6;stroke-width:.223841" transform="scale(.265)"/><path d="M136.5 81.6c-1 .3-.5 1.7.2 2.2 5.2 4.9 12.1 7.8 16.6 13.5 3.4 4.9 2.7 12.4-2 16.2-3.3 2.5-7.7 2-11.5 2.8-.7.4.2 1.5.2 2.2q1.4 4.4.4 8.9a10 10 0 0 1-7 7c-2.8.9-5.9.4-8.8.7-.7.5.1 1.5.2 2 1.1 4.4.8 9.5-2.3 13a11 11 0 0 1-8.4 3c-1.7.3-3.6 0-5.2.5.6 2.2 2.3 4 2.7 6.4 1 5.8-1.2 12.6-6.7 15.5-2.2 1.3-5 .9-7.4.7-4.5-.5-7.8-4-11.9-5.7-1.3-.4-1.6 1.4-2.2 2.1-1.3 2.4-3 4.6-3.8 7.1.5 1.3 2.1 1.8 3.2 2.6q11.9 7.8 24.1 15.2c.8.5 2 1 2.7-.1 3.6-5 6.5-10.5 9.7-15.7q23.9-40 47-80.2c.3-.8 1.2-1.5 1-2.3-3.8-3-8.1-5.2-12.2-7.6q-8.7-5.1-17.6-9.7z" style="fill:#0f6;stroke-width:.223841" transform="scale(.265)"/><path d="M146.1 63.3c-2.7 4.8-5.7 9.5-8.1 14.4-.4 1 1.3 1.2 1.8 1.8 5.4 3 10.7 6.3 16.4 8.9 1.4-.3 2-1.9 2.8-3 1.7-2.5 3.3-5.6 2.5-8.8q-.7-3.5-1.8-6.8-6.7-3.5-13.4-6.6z" style="fill:#b3b3b3;stroke-width:.223841" transform="scale(.265)"/><path d="M164.9 88.3c-.7 1.2-2 2.2-2.2 3.6q2 1.8 4.2 3.4c.7-1.5 1.2-3.6.3-5.2-.6-.6-1.4-1.6-2.3-1.8" style="fill:red;stroke-width:.223841" transform="scale(.265)"/><path d="M181.2 29.4c-1.9.6-3 2.4-4.5 3.6-3.8 3.1-7.5 6.4-11.7 8.9-1.3-.8-2.1-2.2-3.1-3.3-3 4.5-3.6 10-4.6 15.3-.4 2.3-.9 5 1 6.9.4.8 1 .4 1.5-.1 5.6-4.8 10.7-10.3 16.5-14.9 1.3-.7 2.8-1.4 3.5-2.8 2-3.8 4-8.3 2.8-12.6q-.3-1-1.4-1" style="fill:#f60;stroke-width:.223841" transform="scale(.265)"/><path d="M190.3 18.3c-4.3 1-8.2 3-12.2 4.8a86 86 0 0 0-14.9 8.5c-.7.6-1.9.6-2.4-.4Q160 30 159 29q-3.8 5.3-7.2 10.8c-2.4 3.8-1.5 8.4-1.8 12.6.1 1.3-.6 3 .8 3.7.9.6 1.6 1.7 2.6 2 .7-1.2.2-2.6.5-3.9q1.2-7 3.5-13.6 1.6-3.1 4.2-5.5c1.6.5 3.2 1.7 5 2q5.8-4.6 11.5-9.4c2.2-1.4 5-.8 7.5-1.1 0 5.6.3 11.6-2.3 16.8-1 2.3-3 4-5 5.1-5.8 4.3-10.6 9.8-16.4 14 0 .8 1.1 1 1.7 1.4 2.4.9 4.8-.5 7-1.4a7 7 0 0 0 3.3-3.2c4-4.8 10-7.6 14-12.5.8-1.2 2.1-2.1 2.5-3.5q1-11.6 1-23.1c-.1-.7-.1-2-1.1-2" style="fill:#fc0;stroke-width:.223841" transform="scale(.265)"/><path d="M71.8 135q-2.8 2.8-5.3 5.5c.3 3.1-.5 6.6 1.1 9.5 2.3 3.2 5.8 5.2 8.8 7.8 6.3 4.8 12.5 9.8 19.2 14 2.7 1.6 6.3 1.5 9.1.2q3-1.7 5.4-4.4v-9c-5.7-5.9-12.6-10.5-19-15.6l-10.8-8zM81.7 110.6c-5 0-9.2 4.5-9.5 9.4a10 10 0 0 0 4.4 9q14.5 10.3 29.8 19.3c2.7 1.8 6 3 9.2 2.3 3.4-.4 6-3 8.2-5.4-.1-3.5.4-7.7-2.3-10.5-4-4-9-6.9-13.7-10-7.1-4.5-14.1-9.4-21.8-13q-2-1.1-4.3-1M90.2 90.7q-2.8 2.8-5.4 5.5c.3 3.2-.3 6.7 1.2 9.6 1.8 2.3 4.5 3.7 6.8 5.5a545 545 0 0 0 31.3 21c2.5 1.5 5.7 1.3 8.4.5s4.8-3 6.7-5c0-3.8.5-8.2-2.5-11-5.5-4.7-11.6-8.4-17.5-12.5q-10.1-7-20.4-13.6zM108.7 72c-4.7 0-8.8 4-9.2 8.6q-.4 3-.3 5.9c6.2 5.9 13.6 10.1 20.7 14.9 6.4 4 12.7 8.4 19.4 12 3.7 1.5 8.2.6 11.3-1.9l3-2.8-.1-9c-5.3-5.3-12-9-18-13.2q-10.7-7-21.7-13.4a11 11 0 0 0-5.1-1.1M180 74.8c-3-.1-6.5 1.2-7.5 4.3-1.3 3.9 1.1 7.7 3 11 1.5 2.6 3.5 5 4.9 7.7q.4 19.5 2.4 38.9.3 1-.6.8c-1.8-.3-1.7-2.5-2-3.9-.5-3.6-.7-7.2-1.4-10.7a59 59 0 0 0-12.2-8.5c-1-.2-2.4-2-3.1-.6q-5.3 7.7-10.1 16-7 11.6-13.6 23.4c.5 1.2 2.2 1.4 3.2 2 5 1.8 10.5 2.4 14.7 5.9q3.9 2.7 7.6 5.3c-1.8 1.3-3.7-.3-5.2-1.2a41 41 0 0 0-11.3-6c-3.4-1-6.8-2.5-10.3-3.4-1.2.6-1.6 2.2-2.4 3.2q-7.7 13.1-14.9 26.6c-.4.6-.6 1.6.2 2q6.3 4 13.3 6.8c3 1 6 2 9 2.5q8-1.6 16.1-3.1c7 3.8 13.4 8.6 20.3 12.3 1.9-.8 3.4-2.3 5-3.5a95 95 0 0 0 25.4-32.1c.7-1.6 1.9-3.2 2.3-4.8-1.8-1.9-4.4-3.7-4.5-6.6-.7-10.4-2.7-20.7-4-31-1.1-8.9-2-17.8-4.3-26.5q-.9-3.5-3.4-6.3c-1.2-1.2-.9-3-1.9-4.4a66 66 0 0 0-9.5-14 6 6 0 0 0-5.3-2" style="fill:#fff;stroke-width:.223841" transform="scale(.265)"/><path d="M124.6 22.7A105.2 105.2 0 0 0 18.8 130.6a106 106 0 0 0 72 99.3 97 97 0 0 0 34.8 5q11.3.2 22.4-2c22.8-5 43.8-17.8 58.7-35.8a106 106 0 0 0 23.8-54.4q1.6-17-.9-34a112 112 0 0 0-24.4-50c-.6-.3-1.2-1.7-2-1.2q-2.5 3.9-4.4 8.2c3 4.5 6.7 8.7 9.3 13.6q7.5 13.4 11.6 28.2a14 14 0 0 1 1 6.3V147a123 123 0 0 1-14.2 33.8 95 95 0 0 1-37.5 34c-8.2 4.3-17.2 7-26 9.6h-36.4c-9.6-2.9-19.3-6-28.1-11a95 95 0 0 1-39.9-41.3 136 136 0 0 1-9.3-25.5v-36.2c2.9-9.3 5.8-18.8 10.5-27.3a95 95 0 0 1 42.6-41c8-4.1 16.6-6.6 25.2-9 10.3-.4 20.6-.4 30.9-1q2.3-3.4 4.2-7.2c.6-1.1-1-1.4-1.7-1.4-5.4-.9-11-.9-16.4-1" style="fill:#fff;stroke-width:.223841" transform="scale(.265)"/></svg>