<?xml version="1.0" encoding="UTF-8" standalone="no"?>
<!-- Created with Inkscape (http://www.inkscape.org/) -->

<svg
   width="250"
   height="250"
   viewBox="0 0 66.145832 66.145833"
   version="1.1"
   id="svg1"
   xml:space="preserve"
   sodipodi:docname="lighter_off.svg"
   inkscape:version="1.4.3 (0d15f75, 2025-12-25)"
   xmlns:inkscape="http://www.inkscape.org/namespaces/inkscape"
   xmlns:sodipodi="http://sodipodi.sourceforge.net/DTD/sodipodi-0.dtd"
   xmlns="http://www.w3.org/2000/svg"
   xmlns:svg="http://www.w3.org/2000/svg"><sodipodi:namedview
     id="namedview1"
     pagecolor="#ffffff"
     bordercolor="#000000"
     borderopacity="0.25"
     inkscape:showpageshadow="2"
     inkscape:pageopacity="0.0"
     inkscape:pagecheckerboard="0"
     inkscape:deskcolor="#d1d1d1"
     inkscape:document-units="mm"
     inkscape:zoom="3.1589646"
     inkscape:cx="276.03981"
     inkscape:cy="198.95759"
     inkscape:window-width="3840"
     inkscape:window-height="2054"
     inkscape:window-x="1609"
     inkscape:window-y="1609"
     inkscape:window-maximized="1"
     inkscape:current-layer="layer1" /><defs
     id="defs1"><filter
       style="color-interpolation-filters:sRGB;"
       inkscape:label="Color Shift"
       id="filter17"
       x="0"
       y="0"
       width="1"
       height="1"><feColorMatrix
         type="hueRotate"
         values="50"
         result="color1"
         id="feColorMatrix16" /><feColorMatrix
         type="saturate"
         values="0.170807"
         result="fbSourceGraphic"
         id="feColorMatrix17" /><feColorMatrix
         result="fbSourceGraphicAlpha"
         in="fbSourceGraphic"
         values="0 0 0 -1 0 0 0 0 -1 0 0 0 0 -1 0 0 0 0 1 0"
         id="feColorMatrix18" /><feColorMatrix
         id="feColorMatrix19"
         type="hueRotate"
         values="50"
         result="color1"
         in="fbSourceGraphic" /><feColorMatrix
         id="feColorMatrix20"
         type="saturate"
         values="0.170807"
         result="color2" /></filter><filter
       style="color-interpolation-filters:sRGB;"
       inkscape:label="Greyscale"
       id="filter23"
       x="0"
       y="0"
       width="1"
       height="1"><feColorMatrix
         values="0.21 0.72 0.072 -0.3 0 0.21 0.72 0.072 -0.3 0 0.21 0.72 0.072 -0.3 0 0 0 0 1 0 "
         id="feColorMatrix23"
         result="fbSourceGraphic" /><feColorMatrix
         result="fbSourceGraphicAlpha"
         in="fbSourceGraphic"
         values="0 0 0 -1 0 0 0 0 -1 0 0 0 0 -1 0 0 0 0 1 0"
         id="feColorMatrix41" /><feColorMatrix
         id="feColorMatrix42"
         values="0.21 0.72 0.072 -0.2 0 0.21 0.72 0.072 -0.2 0 0.21 0.72 0.072 -0.2 0 0 0 0 1 0 "
         in="fbSourceGraphic"
         result="fbSourceGraphic" /><feColorMatrix
         result="fbSourceGraphicAlpha"
         in="fbSourceGraphic"
         values="0 0 0 -1 0 0 0 0 -1 0 0 0 0 -1 0 0 0 0 1 0"
         id="feColorMatrix46" /><feColorMatrix
         id="feColorMatrix47"
         values="0.21 0.72 0.072 -0.2 0 0.21 0.72 0.072 -0.2 0 0.21 0.72 0.072 -0.2 0 0 0 0 1 0 "
         in="fbSourceGraphic" /></filter></defs><g
     inkscape:label="Layer 1"
     inkscape:groupmode="layer"
     id="layer1"
     style="filter:url(#filter23)"><path
       style="fill:#000000;stroke-width:3.01548"
       d="M 30.264497,62.569113 C 30.053717,62.518333 29.01986,62.33668 27.966705,62.165486 22.505797,61.277764 17.075014,58.426156 12.906539,54.25767 8.8458074,50.196935 6.2000575,45.234568 4.9451375,39.32516 c -0.419906,-1.977294 -0.419906,-8.490434 0,-10.467726 1.25492,-5.90941 3.9006699,-10.871775 7.9614015,-14.93251 4.060732,-4.0607371 9.023091,-6.7064682 14.932491,-7.9614072 1.977308,-0.419903 8.490436,-0.419903 10.467744,0 5.9094,1.254939 10.871758,3.9006701 14.932491,7.9614072 4.060761,4.060735 6.706481,9.0231 7.961431,14.93251 0.419905,1.977292 0.419905,8.490432 0,10.467726 -2.47664,11.662273 -10.943677,20.282962 -22.347939,22.753471 -1.674526,0.362749 -7.692694,0.706454 -8.58826,0.490482 z m 7.740308,-0.775647 C 51.425244,59.453137 61.157032,47.808827 61.157032,34.091297 61.157032,18.428337 48.73586,6.0071568 33.0729,6.0071568 c -15.662957,0 -28.0841285,12.4211802 -28.0841285,28.0841402 0,13.614358 9.6709055,25.282991 22.9459395,27.685924 2.625635,0.475271 7.393767,0.482962 10.070094,0.0163 z M 27.884202,59.221465 C 18.308826,57.087492 11.26621,50.544142 8.3933344,41.112331 c -0.654961,-2.150272 -0.699892,-2.601034 -0.699892,-7.021034 0,-4.420002 0.04493,-4.870765 0.699892,-7.021036 2.6632396,-8.743585 8.9149566,-14.995299 17.6585436,-17.6585381 2.150274,-0.654958 2.601029,-0.699892 7.021022,-0.699892 4.419997,0 4.870781,0.04493 7.021026,0.699892 8.743587,2.6632391 14.995303,8.9149531 17.658543,17.6585381 0.65496,2.150271 0.699892,2.601034 0.699892,7.021036 0,4.42 -0.04493,4.870762 -0.699892,7.021034 -2.665018,8.749501 -8.985941,15.064298 -17.658543,17.641462 -1.983883,0.589544 -2.855807,0.694639 -6.38274,0.769358 -2.992918,0.06342 -4.550684,-0.0172 -5.826984,-0.301686 z m 12.194013,-0.981364 c 2.462982,-0.740272 6.946514,-2.9147 6.606609,-3.204093 -0.114589,-0.09746 -1.158939,-0.777272 -2.321042,-1.510723 l -2.112915,-1.333548 -2.750325,0.174024 c -3.166282,0.200348 -4.730591,-0.12701 -6.755635,-1.413719 -0.671878,-0.426913 -1.265172,-0.776203 -1.318427,-0.776203 -0.05337,0 -0.520652,0.757913 -1.038679,1.684248 -0.775309,1.386382 -1.038831,1.665417 -1.490007,1.577774 -0.740693,-0.14387 -8.845721,-5.305883 -8.845721,-5.633728 0,-0.142994 0.411221,-0.995307 0.91381,-1.894038 l 0.913841,-1.634059 -1.21575,-1.071237 c -0.668652,-0.589177 -1.625613,-1.392965 -2.126545,-1.786192 -1.343726,-1.054788 -1.54908,-1.425088 -1.54908,-2.793209 0,-1.826114 0.542695,-2.689188 1.92303,-3.058371 1.13207,-0.302787 1.448544,-0.751864 0.806157,-1.143916 -0.667898,-0.407612 -1.197325,-1.488175 -1.197325,-2.443795 0,-1.906037 1.272742,-3.249546 3.07838,-3.249546 0.672903,0 0.773168,-0.07373 0.607498,-0.446794 -0.10916,-0.245732 -0.246666,-0.920628 -0.30577,-1.499764 -0.199021,-1.95161 1.120853,-3.41496 3.080159,-3.41496 h 0.86879 l -0.118509,-1.234271 c -0.294612,-3.067693 2.461955,-4.596736 5.299759,-2.939562 0.631894,0.369004 1.816343,1.05459 2.632149,1.52353 l 1.483254,0.852614 0.397772,-0.952155 c 0.61368,-1.468977 2.652564,-4.909467 2.909422,-4.909467 0.126047,0 1.204621,0.483763 2.396821,1.075029 l 2.167614,1.075027 0.294011,1.31314 c 0.161628,0.722228 0.246967,1.715164 0.189674,2.206524 -0.09408,0.806505 -0.01206,0.946187 0.839177,1.436383 l 0.943483,0.543 -0.386586,-0.774977 c -0.504277,-1.010842 -0.264758,-2.271052 0.582951,-3.067467 0.851752,-0.800169 2.59292,-0.853353 3.426519,-0.104667 0.861882,0.774097 2.701655,3.230535 3.163808,4.22427 0.225557,0.485066 0.656619,1.267284 0.957836,1.738266 0.63527,0.993281 1.466215,4.681803 1.48081,6.573401 0.006,0.716254 0.113985,1.635372 0.240633,2.042483 0.552347,1.772185 1.099021,6.475442 0.83924,7.220609 -0.224957,0.645666 -0.177612,0.825722 0.348136,1.319596 l 0.608764,0.571913 0.254807,-0.669898 c 0.981387,-2.581236 1.162256,-3.913611 1.149652,-8.467948 -0.01206,-4.249348 -0.06483,-4.764638 -0.702456,-6.839339 C 54.649843,18.671951 48.502223,12.523584 40.04016,9.9142979 37.943559,9.2678068 37.486655,9.2224329 33.073172,9.2224329 c -4.413481,0 -4.870385,0.04538 -6.966986,0.691865 -8.461277,2.6090391 -14.600939,8.7487241 -17.2099906,17.2099881 -0.646488,2.096601 -0.691871,2.55351 -0.691871,6.966993 0,4.413483 0.04553,4.870389 0.691871,6.96699 2.8216126,9.150604 9.7505146,15.562185 19.0996076,17.673558 1.163252,0.26271 2.80165,0.34331 5.715656,0.281194 3.539566,-0.07545 4.38963,-0.178636 6.367028,-0.772951 z m 9.280493,-4.975886 c 2.439731,-2.030357 4.596038,-4.787043 6.134807,-7.842904 l 0.78713,-1.563161 -0.625531,-0.587655 c -0.452382,-0.425008 -0.62553,-0.857959 -0.62553,-1.564278 0,-0.537144 -0.160727,-1.981959 -0.356974,-3.210703 -0.196307,-1.228743 -0.493421,-3.382975 -0.660148,-4.787183 -0.667113,-5.618149 -1.13011,-7.64291 -1.892332,-8.275513 -0.225256,-0.18696 -0.409562,-0.548357 -0.409562,-0.803129 0,-0.526171 -2.074767,-3.711744 -2.858521,-4.388981 -0.703059,-0.60748 -2.119789,-0.574699 -2.758316,0.06384 -0.834594,0.834585 -0.658701,2.017876 0.574419,3.864391 0.971645,1.455001 1.090334,1.798192 1.135718,3.284301 0.08775,2.87785 0.26506,5.688751 0.462664,7.340172 0.158615,1.326372 0.126952,1.595689 -0.187865,1.595689 -0.283152,0 -0.415864,-0.43556 -0.525145,-1.723345 -0.08051,-0.947838 -0.221334,-1.916899 -0.313248,-2.153468 -0.156202,-0.402098 -3.407608,-2.505945 -3.872868,-2.505945 -0.116395,0 -1.605137,2.383959 -3.308249,5.297691 -3.499279,5.986743 -3.449765,5.530061 -0.67019,6.182275 0.735566,0.172606 1.59724,0.517274 1.91483,0.765935 0.317558,0.248655 1.021884,0.752901 1.565121,1.120526 0.750763,0.508055 0.891828,0.705207 0.58805,0.821772 -0.240636,0.09242 -0.876933,-0.211053 -1.600497,-0.763551 -0.660447,-0.504303 -1.67187,-1.043167 -2.247553,-1.197483 -0.575715,-0.154302 -1.478762,-0.458954 -2.006769,-0.676986 -0.528011,-0.21802 -0.99722,-0.349724 -1.042662,-0.292651 -0.292201,0.366964 -4.631079,8.013396 -4.613016,8.129659 0.05398,0.346999 3.420636,2.032008 4.659122,2.331816 1.166386,0.282371 1.679652,0.268679 3.567007,-0.09517 l 2.204556,-0.424995 2.560441,1.639504 c 1.408227,0.901729 2.640621,1.646692 2.738655,1.655476 0.098,0.0088 0.855189,-0.547388 1.682546,-1.23594 z M 36.053307,40.337073 C 39.908474,33.742431 43.342139,27.86758 43.68361,27.281848 l 0.620916,-1.064961 -3.892468,-2.222861 c -2.140868,-1.222573 -3.970689,-2.267502 -4.06631,-2.322064 -0.09559,-0.05455 -0.243649,0.01387 -0.329229,0.152251 -0.08564,0.13829 0.825879,0.884497 2.025256,1.658226 2.403544,1.550534 3.198635,2.556137 3.200114,4.047297 0.0019,1.994332 -1.273889,3.242527 -3.314401,3.242527 -0.951957,0 -1.019836,0.04306 -0.778597,0.49384 0.383839,0.717224 0.323802,2.224828 -0.123031,3.088865 -0.524481,1.014214 -1.716019,1.590429 -3.066349,1.482833 -0.957503,-0.07629 -1.063347,-0.03414 -0.861491,0.343025 0.353292,0.660056 0.273806,2.191879 -0.157107,3.025039 -0.522068,1.009602 -1.716921,1.590683 -3.049068,1.482831 l -1.074415,-0.087 0.467281,0.765932 c 0.611597,1.002559 0.594378,2.455654 -0.04403,3.70691 -1.02484,2.008863 -3.185851,2.359605 -5.353075,0.868826 -0.730348,-0.502391 -1.358321,-0.875781 -1.395472,-0.829757 -0.03709,0.04602 -0.378834,0.623072 -0.759267,1.282335 l -0.69163,1.198655 1.611682,1.022014 c 0.88646,0.56211 2.588274,1.652815 3.781861,2.423797 1.193554,0.77098 2.268905,1.375937 2.389584,1.344346 0.120619,-0.0316 3.373715,-5.453052 7.228882,-12.047697 z m -7.589712,4.607033 c 0.501414,-0.501401 0.652007,-0.911278 0.652007,-1.774526 0,-1.42317 -0.310835,-1.759077 -4.579545,-4.949066 -2.976909,-2.224624 -3.413459,-2.469702 -4.399219,-2.469702 -1.544648,0 -2.510203,0.973994 -2.510203,2.532102 0,0.755367 0.164946,1.301284 0.510611,1.688446 0.602281,0.674847 6.271528,4.998046 7.243326,5.523511 0.913328,0.493863 2.283108,0.249168 3.083023,-0.550765 z m 3.574334,-5.872141 c 0.89198,-0.891953 0.915318,-2.616777 0.04794,-3.540064 -0.672843,-0.716235 -8.349642,-5.654713 -9.42671,-6.064213 -0.963746,-0.366411 -2.161614,-0.07964 -2.885359,0.690776 -0.84943,0.904156 -0.856456,2.613742 -0.01508,3.510018 0.580992,0.618424 7.155635,4.91122 8.973304,5.858947 1.140937,0.594884 2.433007,0.416841 3.305293,-0.455464 z m 4.084977,-4.595585 c 0.888902,-0.888908 0.915257,-2.616838 0.05398,-3.533736 -0.328959,-0.350178 -2.730484,-2.054055 -5.336671,-3.786399 -4.232521,-2.813349 -4.856485,-3.149707 -5.842666,-3.149707 -1.554931,0 -2.519914,0.969641 -2.519914,2.532101 0,0.755502 0.164947,1.301081 0.510641,1.688034 0.543087,0.608092 9.22199,6.495899 10.164658,6.895743 0.87253,0.370101 2.254584,0.06947 2.970094,-0.646036 z m 11.258161,-5.285272 c -0.139616,-0.604782 -0.256315,-1.622697 -0.259935,-2.262034 -0.006,-0.900237 -0.190577,-1.413211 -0.823918,-2.27429 l -0.817676,-1.111867 -0.206862,0.742432 c -0.113683,0.408334 -0.143838,1.008518 -0.06694,1.333733 0.09167,0.38676 -0.124838,1.054315 -0.62571,1.929802 -0.757759,1.324417 -0.760503,1.343046 -0.261443,1.770317 0.277426,0.2375 0.675346,0.431821 0.88438,0.431821 0.208974,0 0.38004,0.120438 0.38004,0.267623 0,0.147185 0.373377,0.42499 0.829739,0.617313 1.073179,0.45226 1.320628,0.08302 0.968211,-1.444863 z m -7.428506,0.179059 c 0.975689,-0.975701 0.923158,-2.666767 -0.113985,-3.667278 -0.870598,-0.839874 -8.953373,-6.037975 -10.018349,-6.442878 -2.648191,-1.006849 -4.783751,2.358284 -2.74719,4.328949 0.771692,0.746702 8.805132,5.962439 9.88633,6.418721 0.894813,0.377624 2.271139,0.08449 2.993134,-0.637514 z m 4.113925,-5.670997 c -0.319731,-0.246786 -0.463389,-0.221637 -0.729023,0.127645 -0.281948,0.370566 -0.244554,0.505147 0.252699,0.908389 0.57514,0.466657 0.585483,0.464844 0.729019,-0.127646 0.09288,-0.383288 0.0013,-0.712376 -0.252695,-0.908388 z m -1.866249,-1.340877 c 0.645615,-1.130626 0.68608,-1.513932 0.304805,-2.886812 -0.234905,-0.845875 -0.477893,-1.067012 -2.032884,-1.850095 l -1.766075,-0.889391 -1.138976,1.96509 -1.138946,1.965087 2.343509,1.345367 c 1.288934,0.739953 2.458398,1.347936 2.598828,1.351075 0.14052,0.003 0.513808,-0.447005 0.829739,-1.000321 z"
       id="path1" /><path
       style="fill:#00ff66;stroke-width:0.223841"
       d="m 136.96334,81.727872 c -1.08673,0.08418 -1.02433,1.559489 -0.18887,1.986592 5.43264,4.913666 12.68022,7.855187 17.03468,13.881658 2.7289,4.011788 2.42642,9.687468 -0.16482,13.660438 -2.15169,3.28246 -6.14257,4.89269 -9.964,4.87904 -1.22898,0.19911 -2.69043,-0.0729 -3.79263,0.50277 -0.0157,1.51733 1.15922,2.85791 1.12826,4.42764 0.47056,4.37422 -0.36064,9.4605 -4.23099,12.08765 -2.55952,1.89272 -5.8101,2.28043 -8.90119,2.09748 -0.9986,0.1528 -2.3172,-0.26026 -3.15695,0.32631 0.23211,1.73418 1.15049,3.37421 0.97506,5.18506 0.16525,4.12276 -1.02233,8.79142 -4.80179,11.02332 -2.32972,1.49044 -5.14109,2.05084 -7.88698,1.73506 -1.34909,0.0163 -2.74513,-0.19858 -4.06536,-0.0436 1.04159,2.3523 2.86903,4.6188 3.09356,7.34304 0.73059,5.74252 -1.75087,12.24901 -7.04488,15.01792 -4.25787,1.96027 -9.361038,0.96734 -13.223252,-1.50219 -2.265514,-1.19518 -4.228861,-3.02546 -6.650535,-3.87875 -0.903045,0.34237 -1.05489,1.69722 -1.687685,2.37425 -1.351943,2.29801 -2.679525,4.61021 -4.018083,6.91604 0.974214,1.1607 2.688788,1.79323 3.942091,2.75435 7.940873,4.9932 15.711873,10.27576 23.862324,14.92431 0.68833,0.30399 1.75817,1.16023 2.20038,0.0594 6.05385,-9.18621 11.45198,-18.78734 17.11048,-28.21931 13.70197,-23.32848 27.45307,-46.63147 40.92912,-70.09074 -0.41509,-0.920225 -1.87385,-1.127549 -2.64152,-1.796271 -9.24727,-5.251237 -18.45593,-10.604832 -27.80658,-15.653296 z"
       id="path2"
       transform="scale(0.26458333)" /><path
       style="fill:#b3b3b3;stroke-width:0.223841"
       d="m 146.1898,63.327417 c -2.55676,3.817131 -4.67751,7.968122 -6.97315,11.964989 -0.48186,0.953113 -1.10693,1.858006 -1.46724,2.861 2.28938,1.712758 5.01208,2.947808 7.48315,4.442422 3.70461,1.980615 7.29626,4.302574 11.22421,5.789137 1.58218,-0.845511 2.36442,-2.691374 3.32468,-4.138331 1.50854,-2.440514 2.40461,-5.39389 1.58584,-8.239394 -0.53551,-2.618593 -1.24963,-5.615182 -3.80093,-7.00597 -3.62227,-2.131374 -7.38902,-4.079228 -11.26989,-5.68522 l -0.0262,-0.0013 z"
       id="path3"
       transform="scale(0.26458333)" /><path
       style="fill:#ff0000;stroke-width:0.223841"
       d="m 165.35096,88.932327 c -1.60367,0.166096 -3.10657,2.463717 -1.67924,3.751091 0.89882,0.811173 1.84645,1.94034 3.08131,2.126929 1.13252,-0.855088 1.0138,-2.628427 0.83984,-3.902795 -0.25354,-0.999787 -1.12655,-2.031072 -2.24191,-1.975225 z"
       id="path4"
       transform="scale(0.26458333)" /><path
       style="fill:#ffffff;stroke-width:0.223841"
       d="m 179.39875,74.823767 c -2.6534,-0.12022 -5.4073,1.132455 -6.58364,3.605069 -1.65429,3.671402 0.2936,7.709136 2.15928,10.893465 2.1867,3.808045 5.4201,7.457851 5.35435,12.100889 0.63245,10.79863 0.90567,21.66155 2.19723,32.40287 -0.0803,1.1296 0.37775,2.63443 -0.4761,3.52682 -1.09378,0.25786 -1.44658,-1.29602 -1.60971,-2.09726 -0.79037,-4.1019 -0.65361,-8.40051 -1.82441,-12.4297 -1.59811,-2.13724 -4.12772,-3.36003 -6.24257,-4.9198 -2.71778,-1.69268 -5.3692,-3.5946 -8.40199,-4.69051 -1.59287,1.40444 -2.52148,3.57303 -3.76289,5.33241 -6.05502,9.92381 -12.13661,19.84954 -17.60674,30.11063 -0.8098,1.68565 -1.90184,3.68198 -1.23266,5.57851 1.50034,1.73987 4.09156,1.74467 6.13653,2.41927 3.87667,0.70506 7.50381,2.32548 10.63559,4.70938 2.15627,1.67712 4.70889,2.97048 6.48333,5.05977 -0.26364,0.82617 -1.51813,0.41686 -2.11381,0.13771 -4.18926,-2.0644 -7.67732,-5.44145 -12.20968,-6.84453 -3.87996,-1.21376 -7.66295,-2.72527 -11.5551,-3.89504 -1.21965,0.17358 -1.54366,1.7977 -2.25586,2.61061 -5.29188,9.16219 -10.64711,18.29787 -15.58718,27.65562 -0.67938,1.09588 1.00073,1.71833 1.63203,2.27994 5.08074,2.88598 10.3342,5.61634 15.94564,7.31288 5.79025,1.50298 11.7515,-0.2411 17.48358,-1.18368 1.43853,-0.17559 2.95839,-0.79289 4.34356,-0.69518 6.58505,4.12726 13.00881,8.5435 19.8104,12.30716 1.53798,-0.50008 2.75588,-1.84691 4.10732,-2.74151 11.34694,-8.85016 20.26605,-20.5672 26.56969,-33.45559 0.61377,-1.3906 1.60967,-2.71724 1.98808,-4.14724 -1.85182,-2.03136 -4.48873,-3.92564 -4.53672,-6.96138 -0.49323,-8.66759 -2.2007,-17.23123 -3.22626,-25.85075 -1.4043,-9.83049 -2.21635,-19.77895 -4.4779,-29.46472 -0.7383,-2.81907 -1.59391,-5.759489 -3.76989,-7.83357 -1.31382,-1.462689 -1.17677,-3.59314 -2.27648,-5.191129 -2.70393,-4.903481 -5.72743,-9.714346 -9.54295,-13.834508 -1.45556,-1.431497 -3.57309,-1.889183 -5.55407,-1.806906 z"
       id="path5"
       transform="scale(0.26458333)" /><path
       style="fill:#ffffff;stroke-width:0.223841"
       d="m 108.82753,71.983343 c -6.32212,0.03777 -11.278775,7.124677 -9.229077,13.082912 1.267257,4.116669 5.386577,6.146726 8.593497,8.55521 9.55317,6.487755 19.21161,12.843165 29.16626,18.699835 2.23934,1.41616 4.91612,2.2674 7.56905,1.66049 3.66854,-0.53585 7.31063,-2.84686 8.34589,-6.57556 1.4032,-4.22749 -0.41666,-9.159412 -4.16161,-11.544878 -9.55285,-7.045614 -19.65775,-13.308007 -29.75067,-19.542065 -3.28234,-1.774664 -6.6346,-4.372458 -10.53334,-4.335944 z"
       id="path6"
       transform="scale(0.26458333)" /><path
       style="fill:#ffffff;stroke-width:0.223841"
       d="m 94.029963,90.713439 c -3.589604,-0.0986 -7.343112,1.930408 -8.477552,5.480178 -0.943199,2.98108 -1.039689,6.441323 0.357184,9.294223 1.486601,2.33049 4.083201,3.65246 6.178711,5.36614 9.945264,7.03933 20.029504,13.89466 30.326804,20.40915 1.92336,1.21496 4.0339,2.46819 6.41413,2.11034 4.16074,0.019 8.65635,-2.29756 9.84395,-6.51971 1.47663,-4.15938 0.0255,-9.31302 -3.84647,-11.64374 -10.14752,-7.41913 -20.57555,-14.46627 -31.23803,-21.124097 -2.89597,-1.789686 -6.014889,-3.635526 -9.558727,-3.372484 z"
       id="path7"
       transform="scale(0.26458333)" /><path
       style="fill:#ffffff;stroke-width:0.223841"
       d="m 82.116971,110.66024 c -4.585005,0.0153 -9.122312,3.35607 -9.74478,8.03865 -0.731228,3.85241 0.755965,8.18889 4.221055,10.24804 9.697695,6.90911 19.722074,13.36469 29.937424,19.48046 3.46735,2.36071 8.2023,3.31678 12.03309,1.25031 4.73351,-2.36461 6.60608,-8.72681 4.18833,-13.37183 -1.50144,-3.01826 -4.75872,-4.54339 -7.31577,-6.52169 -9.22237,-6.19577 -18.530453,-12.29458 -28.190672,-17.78964 -1.567572,-0.85416 -3.328411,-1.40815 -5.128677,-1.3343 z"
       id="path8"
       transform="scale(0.26458333)" /><path
       style="fill:#ffffff;stroke-width:0.223841"
       d="m 75.407415,135.13545 c -2.712355,-0.14549 -5.345066,1.13027 -6.954509,3.3098 -2.438351,3.25559 -2.577067,7.96982 -0.781569,11.5446 2.014136,2.86838 5.114959,4.73268 7.729811,7.00081 6.640033,5.13738 13.221776,10.39546 20.273962,14.96012 4.90453,2.62982 11.94005,0.1574 13.99358,-5.0561 0.78524,-2.54034 0.72224,-5.40894 -0.20461,-7.9009 -1.83554,-3.41531 -5.21328,-5.62937 -8.07562,-8.11339 -6.667633,-5.21954 -13.387876,-10.43342 -20.635522,-14.83034 -1.609756,-0.99777 -3.523981,-0.95349 -5.345523,-0.9146 z"
       id="path9"
       transform="scale(0.26458333)" /><path
       style="fill:#ffffff;stroke-width:0.223841;filter:url(#filter17)"
       d="M 124.07541,22.600977 C 106.15797,22.722022 88.260266,27.283539 72.6423,36.110445 49.099079,49.111244 31.018209,71.585883 23.375673,97.371731 20.374084,107.48838 18.62798,118.02666 18.828492,128.59857 c -0.141304,7.44708 0.602026,14.88807 2.177745,22.16698 3.812259,18.66111 12.803819,36.22831 25.689314,50.24852 6.07474,6.54327 12.813688,12.49403 20.351444,17.30512 16.147162,10.50625 35.257675,16.61753 54.573565,16.64987 12.24924,0.26356 24.6436,-0.89706 36.31056,-4.81117 25.02696,-7.9651 46.72789,-25.71543 59.55526,-48.62709 14.17181,-24.90714 17.57686,-55.57501 9.48077,-83.038565 C 219.91164,73.974899 203.5969,52.259375 181.91714,38.785789 164.72225,27.982454 144.37608,22.316171 124.07541,22.600977 Z m 3.92116,10.510923 c 7.70124,0.04539 15.55262,-0.14794 22.9175,2.436461 18.66174,5.525888 35.95594,16.246837 48.34823,31.358666 9.94874,12.038129 16.87503,26.482658 20.51448,41.629833 1.21774,6.87381 0.85846,13.91337 1.01982,20.87489 -0.10657,6.39179 0.10346,12.86557 -0.90403,19.17814 -2.11039,9.60718 -5.85959,18.8413 -10.5734,27.46305 -10.73374,19.43001 -28.45988,34.87084 -49.15755,42.88844 -7.82216,3.01752 -15.99098,5.40765 -24.4128,5.57626 -8.1272,0.27892 -16.30515,0.6507 -24.41269,0.009 -9.28027,-0.99719 -18.263708,-4.02621 -26.755668,-7.8003 -19.2753,-8.71787 -35.363994,-24.09919 -45.122763,-42.83693 -4.192787,-8.08469 -7.530253,-16.67624 -9.363003,-25.60499 -1.233765,-8.10605 -0.81971,-16.369 -0.875973,-24.55194 0.126027,-6.63364 0.04337,-13.40423 2.149831,-19.76603 C 36.16247,87.868337 44.362903,72.549475 56.421069,60.71858 68.026773,48.851503 82.887797,40.431038 98.738938,35.672085 c 6.064122,-2.150909 12.509482,-2.543411 18.892662,-2.533874 3.45485,-0.03546 6.90999,-0.02943 10.36497,-0.02631 z"
       id="path10"
       transform="scale(0.26458333)" /></g></svg>
