<?xml version="1.0" encoding="UTF-8" standalone="no"?>
<!-- Created with Inkscape (http://www.inkscape.org/) -->

<svg
   width="250"
   height="250"
   viewBox="0 0 66.145832 66.145833"
   version="1.1"
   id="svg1"
   xml:space="preserve"
   inkscape:version="1.4.3 (0d15f75, 2025-12-25)"
   sodipodi:docname="lighter_on_simplified.svg"
   xmlns:inkscape="http://www.inkscape.org/namespaces/inkscape"
   xmlns:sodipodi="http://sodipodi.sourceforge.net/DTD/sodipodi-0.dtd"
   xmlns="http://www.w3.org/2000/svg"
   xmlns:svg="http://www.w3.org/2000/svg"><sodipodi:namedview
     id="namedview1"
     pagecolor="#ffffff"
     bordercolor="#000000"
     borderopacity="0.25"
     inkscape:showpageshadow="2"
     inkscape:pageopacity="0.0"
     inkscape:pagecheckerboard="0"
     inkscape:deskcolor="#d1d1d1"
     inkscape:document-units="mm"
     inkscape:zoom="4.4674506"
     inkscape:cx="222.38634"
     inkscape:cy="60.549075"
     inkscape:window-width="3840"
     inkscape:window-height="2054"
     inkscape:window-x="1609"
     inkscape:window-y="1609"
     inkscape:window-maximized="1"
     inkscape:current-layer="layer1" /><defs
     id="defs1" /><g
     inkscape:label="Layer 1"
     inkscape:groupmode="layer"
     id="layer1"><path
       style="fill:#000000;stroke-width:3.01547"
       d="M 30.264432,62.569333 C 22.688686,61.729065 15.505498,57.878128 10.77144,51.878358 6.6083534,46.673791 4.2196261,39.98934 4.635129,33.297826 4.5334079,21.547275 13.040839,10.565713 24.11545,6.9797067 c 4.409125,-1.5956868 9.227562,-1.5466019 13.828148,-1.067843 1.602686,0.120122 -1.057372,1.9863455 -0.937988,3.0119572 -0.611859,0.6216126 -1.978875,0.1178059 -2.892711,0.2893784 -2.020696,0.072346 -4.07911,-0.104779 -6.076046,0.1247227 -6.50457,1.611907 -12.55752,5.449337 -16.120943,11.216623 -1.756166,2.787667 -3.0351089,5.933494 -3.7118497,9.140405 0.063579,3.139239 -0.1274837,6.316846 0.096316,9.431943 1.6457853,6.4988 5.4668545,12.56479 11.2441375,16.129023 2.785798,1.75229 5.928779,3.027805 9.131967,3.704171 3.139258,-0.06352 6.316813,0.127366 9.431976,-0.09623 2.956248,-0.873471 5.910773,-1.926054 8.49035,-3.639337 -0.773501,-1.0984 -2.635543,-1.825726 -3.893641,-2.746044 -0.921919,-0.610836 -2.151122,-0.01778 -3.204711,-0.112755 -1.50581,0.107226 -3.029563,0.341881 -4.446707,-0.329104 -2.042637,-0.74172 -4.121219,-2.990055 -4.905328,0.251359 -0.473816,2.217332 -2.412473,0.59795 -3.630501,-0.154533 -1.865254,-1.64612 -5.935879,-2.651619 -6.19744,-4.992964 0.04821,-1.078094 2.210401,-2.455856 1.068697,-3.296667 -1.372661,-1.513644 -3.630535,-2.374327 -4.347763,-4.353144 -0.926561,-2.606173 1.546437,-3.704417 2.980336,-4.766007 -2.732375,-1.586276 -1.419713,-6.484352 1.903664,-5.994879 0.819359,-0.595979 -1.196997,-4.617269 1.719189,-5.102362 1.647574,-0.144967 2.671702,-0.141897 2.065788,-2.050167 0.03435,-3.859439 4.862154,-3.533747 6.927412,-1.450104 0.89288,0.09293 2.51938,2.341048 2.822975,0.689418 1.188217,-1.640288 1.936991,-6.316259 4.574032,-4.434545 2.72323,0.918844 -1.999761,-0.790168 -1.089403,-2.324824 0.117685,-1.183119 -0.237139,-2.50641 0.179602,-3.600814 0.941622,-1.0092951 1.410449,-3.0041803 2.763508,-3.3102283 2.644631,-0.1647439 4.753003,-2.1892941 7.296618,-2.8550675 1.707251,-1.0234091 2.826157,0.3438252 2.252405,1.926544 -0.162086,1.9560702 -0.06866,4.0082188 -0.387605,5.9053058 -1.212071,1.955758 -3.565142,2.844846 -4.738655,4.764703 -1.490814,1.208313 -4.309591,0.03365 -2.960548,2.701321 0.25645,1.2218 -0.521489,2.952145 1.139151,3.312463 1.773561,1.304518 -1.058598,-2.315508 0.700884,-3.066668 2.439247,-2.621872 5.09436,0.703625 6.311321,2.830175 1.972699,2.897289 3.00398,6.341865 3.028811,9.846116 0.365997,3.015177 1.586608,6.123628 0.896546,9.161989 -0.112585,0.462908 1.365441,2.138644 1.372976,0.758629 0.634419,-1.950946 1.405909,-3.90996 1.156525,-5.997009 -0.07117,-2.454701 0.115077,-4.9484 -0.11544,-7.37896 -1.144106,-4.212875 -3.059053,-8.221942 -5.827178,-11.612308 0.659955,-0.75553 1.343375,-3.369888 2.227642,-2.600938 4.650378,5.387433 7.666352,12.449495 7.272426,19.646654 0.203261,9.381396 -5.131943,18.4988 -12.923793,23.566514 -4.619814,3.067539 -10.132927,4.563626 -15.656604,4.54888 -0.888424,0.0182 -1.785312,0.08363 -2.669566,-0.03517 z m 7.740309,-0.775648 C 50.469106,59.814473 60.682325,48.418514 61.094677,35.778451 61.416556,30.477614 60.298777,25.131858 57.7121,20.479936 c -1.011789,-1.977044 -2.357062,-3.75582 -3.869779,-5.373967 -0.234711,0.87864 -1.567464,1.836281 -0.952642,2.6538 2.784218,3.442367 4.629947,7.640986 5.562561,11.935462 -0.06287,3.139457 0.126063,6.316412 -0.09524,9.432274 -1.639044,6.541148 -5.390965,12.69124 -11.163456,16.351539 -2.94789,1.913979 -6.305238,3.26814 -9.724343,3.991943 -3.139458,-0.06287 -6.316414,0.126063 -9.432277,-0.09524 C 21.495776,57.736697 15.345684,53.984781 11.685385,48.21229 9.7714055,45.264399 8.4172448,41.90705 7.6934413,38.487945 7.7563113,35.348488 7.5673784,32.171533 7.7886841,29.055671 9.4575324,22.370214 13.363659,16.105652 19.321422,12.4616 c 2.902722,-1.792934 6.172782,-3.120381 9.51828,-3.7297774 2.59693,-0.076921 5.193861,-0.1538418 7.790792,-0.230762 0.13299,-0.678132 1.804123,-2.0517256 0.768705,-2.2015677 -9.594291,-1.4616626 -19.882195,2.2228959 -26.016273,9.8247041 -7.8244908,9.24483 -8.5275582,23.617075 -1.6860463,33.609508 5.2613433,8.115077 14.9726063,13.059239 24.6378023,12.38526 1.227738,-0.0407 2.457697,-0.120108 3.670059,-0.32528 z m 11.353873,-8.529231 c 3.053653,-2.505758 5.252981,-5.861658 6.921916,-9.406037 -2.028947,-1.460419 -1.053247,-4.328225 -1.770582,-6.431526 -0.736796,-3.876513 -0.557146,-8.017755 -2.117144,-11.686978 -1.376431,-1.941389 -2.05681,-5.050741 -4.55421,-5.914003 -3.120467,-0.328073 -2.336652,3.454363 -0.807485,4.887008 1.183196,1.1582 0.602748,2.877555 0.831056,4.345153 0.09505,2.450988 0.274376,4.899123 0.595222,7.331315 -1.802294,-0.867469 -0.127801,-4.757848 -3.037806,-5.280561 -2.899275,-2.88274 -3.854682,2.610622 -5.443053,4.336595 -1.004684,1.718859 -2.009368,3.437718 -3.014052,5.156577 2.15517,0.947425 4.546802,1.332434 6.312336,3.045837 1.373388,1.400863 -2.279091,-0.602428 -2.876076,-1.100315 -2.179722,-1.037828 -4.541398,-2.032248 -5.233929,1.074019 -0.515911,2.039838 -4.132396,4.820041 -2.363444,6.406449 1.750584,0.860675 3.648168,2.069772 5.647947,1.934621 1.34719,-0.181765 2.756253,-0.686034 4.065311,-0.669045 1.716142,1.075193 3.384064,2.234655 5.161455,3.206841 0.618823,-0.316926 1.137619,-0.809039 1.682538,-1.23595 z M 36.053241,40.337347 c 2.750486,-4.706662 5.503896,-9.411618 8.251185,-14.120147 -2.7126,-1.499726 -5.37769,-3.186835 -8.127173,-4.541139 0.891379,2.121219 5.552849,2.897546 5.050051,6.219054 0.201983,2.496005 -2.969015,2.884447 -4.265662,3.021544 1.349314,2.103935 -0.331513,5.404422 -3.00215,4.921428 -2.247628,-0.702493 0.492241,2.680318 -1.244904,3.726055 -0.383517,1.963181 -4.60955,0.163569 -3.471625,1.735464 1.582191,2.413514 -0.741772,6.477096 -3.748748,5.419705 -2.084067,-1.48554 -3.551734,-1.811822 -4.414785,0.809388 1.55079,1.221867 3.644332,2.314811 5.355348,3.511978 1.748379,1.8472 3.172455,1.160298 3.91792,-1.08006 1.926737,-3.191922 3.817513,-6.405421 5.700543,-9.62327 z m -7.589698,4.607022 C 29.522949,44.327485 28.990897,43.0514 29.115539,42.047326 26.766997,39.628756 23.88098,37.81828 21.23117,35.7511 c -1.022826,0.0977 -2.283723,-0.379352 -2.896662,0.707905 -1.283599,0.855985 -0.821274,3.075676 0.247009,3.922173 2.32461,1.826253 4.591004,3.80094 7.160886,5.264891 0.942465,0.276823 2.02368,-0.01712 2.72114,-0.7017 z m 3.574335,-5.872125 c 1.378633,-1.048177 0.580077,-3.485546 -0.810156,-4.22505 -2.843682,-1.932144 -5.693029,-3.925218 -8.795769,-5.416139 -2.663388,-1.034869 -4.643605,3.218296 -2.194831,4.628154 2.893576,2.004492 5.802613,4.033991 8.929274,5.655502 0.979354,0.356814 2.143668,0.111676 2.871482,-0.642467 z m 4.084956,-4.595575 c 1.264603,-0.941793 0.734233,-3.292704 -0.552283,-4.02947 -3.074213,-2.265139 -6.300338,-4.312089 -9.469076,-6.440343 -1.02845,0.09975 -2.298096,-0.3828 -2.916082,0.707901 -1.216941,0.7795 -0.822883,2.77091 -0.004,3.685483 3.35344,2.386161 6.678101,4.923668 10.320126,6.83031 0.91989,0.167799 1.938536,-0.107867 2.621307,-0.753881 z m 11.258143,-5.285258 c -0.591212,-1.419034 0.324482,-3.23167 -0.943967,-4.346106 -0.809593,-1.772515 -1.483133,-0.991947 -1.231294,0.774091 0.552871,1.340795 -2.127162,2.761392 -0.89493,3.693482 1.017718,0.259017 3.512518,3.102852 3.15312,0.332891 l -0.08302,-0.45437 z M 39.95248,29.37047 c 1.066309,-0.624462 0.52362,-1.915394 0.651996,-2.928361 -3.008371,-2.731997 -6.655903,-4.66932 -10.083707,-6.823123 -2.246174,-1.703419 -4.809297,0.820182 -4.213635,3.229148 2.974358,2.701542 6.58039,4.618615 9.948639,6.783669 1.097209,0.828393 2.712845,0.665437 3.696707,-0.261333 z m 4.113904,-5.670982 c -0.793732,-0.725585 -1.431236,1.075432 -0.222603,1.241992 0.558214,0.889089 0.630477,-1.207218 0.222603,-1.241992 z m -1.866222,-1.340873 c 0.779613,-1.172957 0.796052,-3.633634 -0.691861,-4.215059 -0.934108,-0.470407 -1.868216,-0.940816 -2.802323,-1.411224 -0.759302,1.310055 -1.518603,2.620111 -2.277903,3.930167 1.639745,0.911704 3.223557,1.939282 4.942317,2.696434 0.390695,-0.225521 0.598873,-0.63581 0.82977,-1.000318 z m -0.06384,-5.117474 c -1.383747,-0.95977 0.377383,0.917779 0,0 z m 2.777229,-0.641701 c 1.579794,-1.519396 3.495433,-2.862256 5.017031,-4.536483 0.854038,-0.927325 0.366742,-2.3512948 0.604146,-3.5069358 0.153478,-1.6789246 0.636016,-4.9555841 -1.94558,-3.077657 -2.23581,0.1408924 -4.613399,3.7404451 -6.393249,2.3884312 -0.947016,0.6908487 -2.53451,2.9815936 -2.476941,4.6392056 0.04647,1.038268 -0.356317,2.286316 0.802309,2.83626 0.388859,-1.43838 0.422046,-4.109135 1.69352,-5.5438659 0.50289,-1.376821 1.661761,0.7039059 2.32856,-0.3873632 1.405415,-0.9880934 2.494678,-2.7829113 4.441259,-2.3822681 0.434676,1.0111586 0.112322,2.9883202 -0.316225,4.1779782 -1.487345,2.099833 -3.940916,3.630177 -5.828364,5.352384 0.577031,0.6884 1.396476,0.328742 2.073534,0.04031 z m 0.245369,-3.251773 c 1.673352,-1.1092 4.317278,-3.5823797 2.764791,-5.5407101 -1.556225,0.5834486 -3.559818,4.5232541 -5.057626,2.4819881 -0.846037,1.503756 -1.644317,3.923071 -1.022481,5.656717 1.006298,0.226426 2.3007,-1.980747 3.315316,-2.597995 z"
       id="path1" /><path
       style="fill:#00ff66;stroke-width:0.0592246"
       d="m 36.214042,21.65171 c 0.170219,1.49876 3.191917,2.223682 4.148777,3.708547 2.350434,2.460786 -0.359878,6.167683 -3.427722,5.470175 1.645621,2.647318 -1.00485,5.908128 -3.934573,4.925687 1.330838,2.655377 -1.134931,5.795042 -4.166085,4.914347 1.990977,2.176616 0.336439,6.70383 -2.872764,6.105136 -1.926879,-0.292052 -3.968603,-3.131431 -4.637595,0.33495 1.108719,2.162992 5.070968,3.699023 7.48121,5.255516 4.771004,-7.474503 9.082852,-15.245342 13.5983,-22.880243 0.972452,-1.698172 2.937465,-3.745194 -0.09163,-4.416008 -2.019702,-1.159627 -4.030789,-2.348879 -6.09792,-3.418107 z"
       id="path2" /><path
       style="fill:#00ff66;stroke-width:0.0592246"
       d="m 36.148917,21.646158 c 0.440089,1.642163 3.305141,2.296013 4.34572,3.928056 2.259812,2.819972 -1.028866,5.50626 -3.508054,5.4379 1.47802,2.750881 -1.243812,5.54024 -4.069361,4.781833 1.179685,2.249969 -0.553421,5.425725 -3.28269,4.806198 -1.467906,0.142314 1.089723,3.068341 -0.432819,4.415436 -1.300229,2.888072 -4.813033,1.565058 -6.673432,0.112815 -1.715126,1.574218 -1.534078,3.247086 0.787915,3.970632 2.121257,0.689501 5.410114,5.376899 6.677695,1.517657 4.827196,-8.061793 9.600552,-16.162842 14.259875,-24.319689 -2.531232,-1.713886 -5.340247,-3.281377 -8.104849,-4.650838 z"
       id="path3" /><path
       style="fill:#00ff66;stroke-width:0.0592246"
       d="m 36.113984,21.599657 c 0.379111,1.762758 3.411281,2.409938 4.436528,4.153246 2.100831,2.94499 -1.397135,5.134105 -3.607803,5.283915 1.653593,3.085089 -1.714796,5.161499 -4.030106,4.969933 1.284962,2.794233 -1.37078,5.154864 -4.103614,4.624964 2.323568,2.811561 -0.793821,7.77789 -4.253861,5.570742 -1.569185,-2.019351 -3.429263,-0.378707 -3.344344,1.565753 2.449363,1.588889 4.858178,3.288052 7.453843,4.625872 1.934234,-2.020469 3.095175,-4.898276 4.680379,-7.286164 3.648935,-6.165707 7.267913,-12.349451 10.842442,-18.558505 -1.211535,-1.752076 -4.109865,-2.63369 -6.047578,-3.961494 -0.668695,-0.32873 -1.305989,-0.788627 -2.025886,-0.988262 z"
       id="path4" /><path
       style="fill:#b3b3b3;stroke-width:0.0592246"
       d="m 38.657175,16.744621 c -0.974066,1.871686 -3.718833,4.524235 -0.05943,5.208468 1.676333,1.562726 4.051429,1.868898 4.175148,-1.067255 0.269851,-2.782587 -2.107988,-3.20574 -4.115723,-4.141213 z"
       id="path5" /><path
       style="fill:#ff0000;stroke-width:0.0592246"
       d="m 43.627651,23.368994 c -1.762842,1.585627 2.118045,2.346795 0.332115,0.188106 z"
       id="path6" /><path
       style="fill:#ff6600;stroke-width:0.0592246"
       d="m 47.947815,7.7789071 c -1.735783,1.2586334 -3.981791,3.8016219 -5.376251,2.8993029 -0.454377,1.407758 -1.899232,4.82211 -0.299964,5.373637 1.751444,-1.573533 3.480615,-3.230672 5.295532,-4.684296 0.459002,-0.920467 1.488245,-2.8775569 0.380683,-3.5886439 z"
       id="path8" /><path
       style="fill:#ffcc00;stroke-width:0.0592246"
       d="m 50.342365,4.8327106 c -2.792989,0.5200364 -5.373491,2.9427548 -7.795101,3.4173334 -1.15978,-0.8537808 -2.899187,2.817359 -2.841921,4.333222 -0.733676,1.45677 1.218591,4.139882 1.111245,1.310135 0.25949,-2.27713 1.184375,-5.208481 3.639055,-4.3688509 1.190998,-1.2435806 5.185209,-4.4269675 4.64121,-0.7895556 0.38304,3.2264715 -2.769312,4.4913215 -4.619808,6.4434045 -1.522322,0.750596 -2.174859,2.419957 0.217485,1.539402 2.177965,-2.173763 6.317797,-3.829988 5.846024,-7.5506535 -0.09592,-1.3530358 0.492086,-3.2310784 -0.198189,-4.3344369 z"
       id="path9" /><path
       style="fill:#ffffff;stroke-width:0.0592246"
       d="m 19.001405,35.734344 c -3.265663,2.112531 -0.243398,5.450112 2.146639,6.730772 2.142526,1.353119 4.659403,4.738011 7.321244,2.521882 2.420919,-2.671876 -1.418021,-4.917115 -3.404148,-6.397837 -1.957179,-1.257541 -3.466412,-3.523998 -6.063735,-2.854817 z"
       id="path10" /><path
       style="fill:#ffffff;stroke-width:0.0592246"
       d="m 21.61828,29.272029 c -3.550455,0.266096 -2.958481,5.161568 0.09064,5.860594 3.074332,1.52172 5.873212,5.167181 9.519644,4.532781 2.994533,-1.197226 1.079783,-4.988105 -1.281512,-5.760754 -2.54876,-1.566664 -4.958981,-3.438552 -7.743569,-4.570301 z"
       id="path11" /><path
       style="fill:#ffffff;stroke-width:0.0592246"
       d="m 23.857829,24.007857 c -4.08288,3.175082 1.692294,6.276399 4.270445,7.934656 2.301786,1.750282 7.44523,5.689359 8.699948,1.091425 0.199511,-2.602873 -2.774286,-3.463991 -4.414221,-4.846169 -2.076919,-1.412931 -4.162812,-2.812939 -6.260175,-4.195412 -0.76531,0.01083 -1.531041,-0.02107 -2.295997,0.0155 z"
       id="path12" /><path
       style="fill:#ffffff;stroke-width:0.0592246"
       d="m 28.749532,19.042238 c -3.282436,0.303331 -3.199957,4.893282 -0.203525,5.684983 2.872208,1.826351 5.624295,3.915557 8.688435,5.397319 3.3358,0.925891 4.855075,-3.974789 1.680022,-5.175888 -3.098729,-2.023 -6.107404,-4.285917 -9.4728,-5.832473 l -0.343149,-0.06129 z"
       id="path13" /><path
       style="fill:#ffffff;stroke-width:0.0592246"
       d="m 47.600795,19.79261 c -4.669475,0.825879 0.368033,5.013127 0.156726,7.374939 -0.312634,2.759114 1.073383,7.303045 0.179319,9.068829 -0.07791,-2.911068 -1.339858,-5.23412 -4.29677,-6.196312 -2.157031,1.864665 -3.383047,5.266656 -5.102172,7.777975 -0.870103,1.390462 -2.571131,3.492365 0.309634,3.556201 1.590048,0.289486 4.448207,1.879071 4.532355,2.781668 -2.146753,-1.127038 -4.298635,-2.385317 -6.726867,-2.929057 -1.763729,2.553841 -3.273261,5.377492 -4.679119,8.165153 2.361054,1.833507 5.677304,3.32794 8.710178,2.176801 2.6968,-0.873601 4.608954,2.077842 6.973279,2.968678 3.929441,-2.524551 6.744441,-6.49936 8.656174,-10.702663 C 54.053787,41.409291 55.05384,37.471093 54.13735,34.401656 53.624916,31.462421 53.724984,28.275399 52.316819,25.5866 50.988504,23.666811 50.226086,20.270476 47.600795,19.79261 Z"
       id="path14" /><path
       style="fill:#ffffff;stroke-width:0.0592246"
       d="M 32.963971,6.0034391 C 21.871785,5.8232383 11.10914,12.947742 7.0522623,23.296605 2.6520624,33.773049 5.3285855,46.753949 13.656902,54.517877 c 5.612842,5.487146 13.619134,8.275317 21.430464,7.593639 12.668205,-0.485291 23.882239,-10.926805 25.766866,-23.381888 0.81475,-5.906717 0.119438,-12.094215 -2.678422,-17.419581 -1.158076,-2.188043 -2.468779,-4.633456 -4.412178,-6.109431 -2.752725,3.110817 2.424184,5.647324 2.866868,8.944008 1.32574,2.927577 2.123927,6.039209 1.771476,9.266798 0.248071,3.684211 -0.105815,7.336795 -1.794158,10.679662 -3.074554,7.568486 -10.052759,13.113869 -17.910686,15.061004 -3.575714,0.483661 -7.360197,0.302681 -10.96178,0.09667 C 20.314264,57.404875 13.559778,52.531827 10.216788,45.555802 8.8046853,42.505402 7.3899058,39.252816 7.7534399,35.819844 7.7613199,32.340716 7.3884106,28.773517 8.9615848,25.542897 11.743341,17.421037 18.886861,11.163765 27.187567,9.1352692 30.248756,8.323596 33.506095,8.8595228 36.646077,8.5111158 38.071184,7.0968451 38.030835,5.6451486 35.684759,6.0645674 34.778979,6.0082792 33.871082,6.0080003 32.963971,6.0034391 Z"
       id="path15" /></g></svg>
