<svg xmlns="http://www.w3.org/2000/svg" xml:space="preserve" width="250" height="250" viewBox="0 0 66.1 66.1"><path d="M30.3 62.6a29 29 0 0 1-19.5-10.7 27 27 0 0 1-6.2-18.6A28.4 28.4 0 0 1 38 5.9c1.6.1-1 2-.9 3-.6.6-2 .1-2.9.3l-6 .1A26 26 0 0 0 8.1 29.7q-.1 4.7.1 9.4A26 26 0 0 0 28.7 59l9.4-.1c3-1 6-2 8.5-3.7-.8-1-2.6-1.8-3.9-2.7-1-.6-2.1 0-3.2-.1-1.5 0-3 .3-4.4-.4-2-.7-4.2-3-5 .3-.4 2.2-2.4.6-3.6-.2-1.8-1.6-6-2.6-6.2-5 0-1 2.2-2.4 1-3.3-1.3-1.5-3.5-2.3-4.3-4.3-.9-2.6 1.6-3.7 3-4.8-2.7-1.6-1.4-6.5 2-6 .7-.6-1.3-4.6 1.6-5 1.7-.2 2.7-.2 2.1-2.1 0-3.9 4.9-3.6 7-1.5.8.1 2.5 2.4 2.8.7 1.1-1.6 1.9-6.3 4.5-4.4 2.8.9-2-.8-1-2.3 0-1.2-.3-2.5.1-3.6 1-1 1.4-3 2.8-3.4 2.6-.1 4.7-2.1 7.3-2.8 1.7-1 2.8.3 2.2 2q0 3-.4 5.8c-1.2 2-3.5 2.9-4.7 4.8-1.5 1.2-4.3 0-3 2.7.3 1.2-.5 3 1.2 3.3 1.8 1.3-1-2.3.7-3 2.4-2.7 5 .6 6.3 2.8q3 4.5 3 9.8c.4 3 1.6 6.1 1 9.2-.2.4 1.3 2.1 1.3.7.6-2 1.4-3.9 1.2-6q0-3.7-.2-7.3-1.6-6.5-5.8-11.7c.7-.7 1.4-3.3 2.2-2.6a28 28 0 0 1 7.3 19.7A28 28 0 0 1 33 62.6zm7.7-.8a28 28 0 0 0 19.7-41.3q-1.5-3-3.9-5.4c-.2.9-1.5 1.8-1 2.7q4.3 5.3 5.7 11.9l-.1 9.4a27 27 0 0 1-21 20.4q-4.5.1-9.4-.1a27 27 0 0 1-20.3-21q0-4.6 0-9.3A27 27 0 0 1 28.9 8.7l7.8-.2c.2-.7 1.8-2 .8-2.2a28 28 0 0 0-26 9.8 28.5 28.5 0 0 0-1.7 33.6 28 28 0 0 0 28.3 12m11.4-8.5q4.4-4 6.9-9.4c-2-1.5-1-4.4-1.8-6.5-.7-3.8-.5-8-2.1-11.7-1.4-1.9-2-5-4.6-5.9-3-.3-2.3 3.5-.8 5 1.2 1 .6 2.8.9 4.3q0 3.7.6 7.3c-1.8-.9-.2-4.8-3-5.3-3-2.9-4 2.6-5.5 4.3l-3 5.2c2.1 1 4.5 1.3 6.3 3 1.3 1.4-2.3-.6-2.9-1-2.2-1-4.5-2-5.2 1-.6 2-4.2 4.8-2.4 6.4 1.8.9 3.6 2.1 5.6 2q2.1-.5 4.1-.7l5.2 3.2q.9-.5 1.7-1.2M36 40.3l8.2-14q-4-2.5-8.1-4.6c.9 2.1 5.5 2.9 5 6.2.2 2.5-3 2.9-4.2 3 1.3 2.1-.4 5.4-3 5-2.3-.8.5 2.6-1.3 3.7-.4 2-4.6.1-3.5 1.7 1.6 2.4-.7 6.5-3.7 5.4-2-1.5-3.6-1.8-4.4.8 1.5 1.3 3.6 2.3 5.3 3.5 1.8 1.9 3.2 1.2 4-1zM28.5 45c1-.6.5-1.8.6-2.9q-3.6-3.4-7.9-6.2c-1 0-2.3-.4-2.9.7-1.2.8-.8 3 .3 3.9 2.3 1.8 4.6 3.8 7.1 5.2q1.6.4 2.8-.7m3.5-5.8c1.4-1 .6-3.5-.8-4.3q-4.2-3-8.8-5.4c-2.6-1-4.6 3.2-2.2 4.7q4.4 3.1 9 5.6 1.6.5 2.8-.6m4.1-4.6c1.3-1 .8-3.3-.5-4Q30.9 27 26 24c-1 .1-2.3-.4-3 .7-1.1.8-.7 2.8 0 3.7 3.4 2.4 6.8 5 10.4 6.8q1.6.3 2.6-.7m11.3-5.3c-.6-1.4.3-3.2-1-4.4-.8-1.7-1.4-1-1.2.8.6 1.4-2.1 2.8-.9 3.7 1 .3 3.5 3.1 3.2.3zm-7.4.2c1-.7.5-2 .6-3-3-2.7-6.7-4.6-10-6.8-2.3-1.7-4.9.8-4.3 3.2q4.7 3.8 10 6.8a3 3 0 0 0 3.7-.2m4-5.7c-.7-.7-1.4 1-.2 1.2.6 1 .7-1.2.3-1.2m-1.8-1.3c.8-1.2.8-3.7-.7-4.3l-2.8-1.4-2.3 4q2.5 1.4 5 2.7.5-.5.8-1m0-5.2c-1.4-1 .3 1 0 0m2.7-.6q2.6-2.2 5-4.5c.9-1 .4-2.4.6-3.5.2-1.7.7-5-2-3.1-2.1.1-4.5 3.7-6.3 2.4-1 .7-2.5 3-2.5 4.6 0 1-.3 2.3.8 2.8.4-1.4.4-4 1.7-5.5.5-1.4 1.7.7 2.3-.4C46 8.4 47 6.6 49 7c.4 1 .1 3-.3 4.2-1.5 2.1-4 3.6-5.9 5.4.6.6 1.4.3 2.1 0m.3-3.3c1.6-1 4.3-3.5 2.7-5.5-1.5.6-3.5 4.5-5 2.5-.9 1.5-1.7 4-1 5.6 1 .3 2.2-2 3.3-2.6" style="fill:#000;stroke-width:3.01547"/><path d="M36.2 21.7c.2 1.5 3.2 2.2 4.2 3.7 2.3 2.4-.4 6.1-3.5 5.4 1.7 2.7-1 6-3.9 5a3.5 3.5 0 0 1-4.2 4.9c2 2.1.4 6.7-2.8 6-2-.2-4-3-4.7.4 1.1 2.2 5.1 3.7 7.5 5.3 4.8-7.5 9-15.3 13.6-23 1-1.6 3-3.7 0-4.3q-3.1-1.8-6.2-3.4" style="fill:#0f6;stroke-width:.0592246"/><path d="M36.1 21.6c.5 1.7 3.4 2.3 4.4 4 2.3 2.8-1 5.5-3.5 5.4 1.5 2.8-1.3 5.6-4 4.8 1.1 2.2-.6 5.4-3.4 4.8-1.4.1 1.1 3-.4 4.4-1.3 2.9-4.8 1.6-6.7.1-1.7 1.6-1.5 3.3.8 4 2.1.7 5.4 5.4 6.7 1.5q7.2-12 14.3-24.3a70 70 0 0 0-8.2-4.7" style="fill:#0f6;stroke-width:.0592246"/><path d="M36.1 21.6c.4 1.8 3.4 2.4 4.5 4.2 2 2.9-1.4 5-3.7 5.2 1.7 3.1-1.7 5.2-4 5 1.3 2.8-1.4 5.2-4 4.6 2.2 2.8-.9 7.8-4.3 5.6-1.6-2-3.5-.4-3.4 1.6q3.7 2.5 7.5 4.6c1.9-2 3-4.9 4.6-7.3l10.9-18.6c-1.2-1.7-4.1-2.6-6-4q-1-.5-2-.9" style="fill:#0f6;stroke-width:.0592246"/><path d="M38.7 16.7c-1 2-3.8 4.6-.1 5.3 1.7 1.5 4 1.8 4.2-1.1.2-2.8-2.1-3.2-4.1-4.2" style="fill:#b3b3b3;stroke-width:.0592246"/><path d="M43.6 23.4c-1.7 1.6 2.1 2.3.4.2z" style="fill:red;stroke-width:.0592246"/><path d="M48 7.8c-1.8 1.2-4 3.8-5.4 2.9-.5 1.4-2 4.8-.3 5.4q2.6-2.5 5.3-4.7c.4-1 1.5-3 .3-3.6" style="fill:#f60;stroke-width:.0592246"/><path d="M50.3 4.8c-2.8.6-5.3 3-7.8 3.5-1.1-.9-2.9 2.8-2.8 4.3-.7 1.4 1.2 4.1 1.1 1.3.3-2.3 1.2-5.2 3.7-4.4 1.1-1.2 5.1-4.4 4.6-.8.4 3.3-2.8 4.5-4.6 6.5-1.5.7-2.2 2.4.2 1.5 2.2-2.2 6.3-3.8 5.8-7.5 0-1.4.5-3.3-.2-4.4" style="fill:#fc0;stroke-width:.0592246"/><path d="M19 35.7c-3.3 2.1-.2 5.5 2.1 6.8 2.2 1.3 4.7 4.7 7.4 2.5 2.4-2.7-1.4-5-3.4-6.4-2-1.3-3.5-3.5-6.1-2.9M21.6 29.3c-3.5.2-3 5.1.1 5.8 3 1.6 5.9 5.2 9.5 4.6 3-1.2 1.1-5-1.3-5.8q-3.7-2.6-7.7-4.6z" style="fill:#fff;stroke-width:.0592246"/><path d="M23.9 24c-4.1 3.2 1.7 6.3 4.2 8 2.3 1.7 7.5 5.6 8.7 1 .2-2.6-2.7-3.4-4.4-4.8L26.2 24zM28.7 19c-3.2.3-3.2 5-.2 5.7 3 1.9 5.7 4 8.7 5.4 3.4 1 4.9-4 1.7-5.2-3-2-6-4.2-9.5-5.8h-.3zM47.6 19.8c-4.7.8.4 5 .2 7.4-.4 2.7 1 7.3.1 9q.1-4.5-4.3-6.2c-2.1 1.9-3.3 5.3-5 7.8-1 1.4-2.6 3.5.2 3.6 1.6.3 4.5 1.9 4.6 2.8q-3.2-2-6.7-3a69 69 0 0 0-4.7 8.2c2.3 1.8 5.7 3.3 8.7 2.2 2.7-.9 4.6 2 7 3 3.9-2.6 6.7-6.6 8.6-10.8-2.2-2.4-1.2-6.3-2.2-9.4-.5-3-.4-6.1-1.8-8.8-1.3-2-2-5.3-4.7-5.8" style="fill:#fff;stroke-width:.0592246"/><path d="M33 6A28 28 0 0 0 7 23.3a28.5 28.5 0 0 0 6.7 31.2A28 28 0 0 0 35 62.1a28 28 0 0 0 18.7-46.9c-2.8 3.1 2.4 5.6 2.8 9q2.3 4.4 1.8 9.2.6 5.6-1.8 10.7c-3 7.6-10 13.1-17.9 15q-5.5.6-11 .1a26 26 0 0 1-17.5-13.6c-1.4-3-2.8-6.3-2.4-9.8 0-3.5-.4-7 1.2-10.3A26 26 0 0 1 27.2 9.1c3-.8 6.3-.2 9.4-.6 1.5-1.4 1.4-2.9-1-2.4z" style="fill:#fff;stroke-width:.0592246"/></svg>