<svg xmlns="http://www.w3.org/2000/svg" xml:space="preserve" width="250" height="250" viewBox="0 0 66.15 66.15"><defs><filter id="b" width="1" height="1" x="0" y="0" style="color-interpolation-filters:sRGB"><feColorMatrix result="color1" type="hueRotate" values="50"/><feColorMatrix result="fbSourceGraphic" type="saturate" values=".17"/><feColorMatrix in="fbSourceGraphic" result="fbSourceGraphicAlpha" values="0 0 0 -1 0 0 0 0 -1 0 0 0 0 -1 0 0 0 0 1 0"/><feColorMatrix in="fbSourceGraphic" result="color1" type="hueRotate" values="50"/><feColorMatrix result="color2" type="saturate" values=".17"/></filter><filter id="a" width="1" height="1" x="0" y="0" style="color-interpolation-filters:sRGB"><feColorMatrix result="fbSourceGraphic" values="0.21 0.72 0.072 -0.3 0 0.21 0.72 0.072 -0.3 0 0.21 0.72 0.072 -0.3 0 0 0 0 1 0"/><feColorMatrix in="fbSourceGraphic" result="fbSourceGraphicAlpha" values="0 0 0 -1 0 0 0 0 -1 0 0 0 0 -1 0 0 0 0 1 0"/><feColorMatrix in="fbSourceGraphic" result="fbSourceGraphic" values="0.21 0.72 0.072 -0.2 0 0.21 0.72 0.072 -0.2 0 0.21 0.72 0.072 -0.2 0 0 0 0 1 0"/><feColorMatrix in="fbSourceGraphic" result="fbSourceGraphicAlpha" values="0 0 0 -1 0 0 0 0 -1 0 0 0 0 -1 0 0 0 0 1 0"/><feColorMatrix in="fbSourceGraphic" values="0.21 0.72 0.072 -0.2 0 0.21 0.72 0.072 -0.2 0 0.21 0.72 0.072 -0.2 0 0 0 0 1 0"/></filter></defs><g style="filter:url(#a)"><path d="M30.26 62.57a29 29 0 0 1-19.15-10.28c-4.37-5.26-6.9-12.12-6.47-19C4.54 21.57 13.03 10.59 24.1 7c4.53-1.67 9.48-1.54 14.2-1.03 10.58 2 19.63 10.3 22.36 20.73 1.17 4.09.99 8.45.54 12.64-1.98 10.2-9.7 19.1-19.73 22.06-3.6 1.15-7.46 1.28-11.2 1.18m7.74-.78c11.57-1.83 21.19-11.7 22.82-23.28 1.78-10.54-3-21.88-11.98-27.75-9.99-6.87-24.41-6.22-33.7 1.61-8.78 7.05-12.35 19.64-8.83 30.3 3.43 11.34 14.72 19.85 26.64 19.47 1.69 0 3.39-.07 5.05-.35m-10.12-2.57c-8.57-1.73-15.99-8.1-18.9-16.37C7.17 38.7 7.73 34.1 7.8 29.73A25.8 25.8 0 0 1 24.84 9.81c4-1.62 8.4-1.04 12.6-1a25.8 25.8 0 0 1 19.91 17.05c1.62 4 1.04 8.4 1 12.6A25.8 25.8 0 0 1 40.5 58.62c-3.73 1.19-7.73.97-11.59.77l-.53-.08zm12.2-.98c1.98-.88 5.7-1.7 6.36-3.38-1.45-.84-2.84-1.99-4.35-2.66-3.34.23-7.02.7-9.83-1.55-1.95-1.38-2.2 4.88-4.74 2.08-2.54-1.56-5.15-3.05-7.47-4.93.3-1.26 1.56-2.5 1.7-3.63-1.44-1.4-3.19-2.5-4.5-4.03-1.33-2.62 1-4.44 2.77-5.42-2.59-1.5-1.6-6.16 1.58-5.99 1.52-.46-.97-3.94 1.5-4.8.95-1.03 3.46.25 2.63-1.8-.62-3.6 4.02-4.62 6.2-2.42 1.02.16 2.74 2.33 3.4 1.41.93-1.8 1.77-4.37 3.38-5.33 1.47.62 2.88 1.37 4.3 2.07.8 1.7-.36 4.25 1.61 5.12 1.45 1.02-1.23-2.86.86-3.46 2.6-2.05 4.77 1.18 6.02 3.14 1.98 2.9 3 6.35 3.03 9.85.45 3.1 1.5 6.27.95 9.42 1.29 2.65 1.77-.85 2.12-2.11.51-3.54.44-7.18.15-10.74a25.6 25.6 0 0 0-17.31-19.04c-3.76-1.3-7.83-.73-11.72-.71-9.14 1.52-17.02 8.54-19.7 17.4-1.3 3.76-.73 7.82-.71 11.71A25.3 25.3 0 0 0 26.27 58.3c3.83 1.14 7.93.79 11.86.44q.98-.2 1.95-.49m9.28-4.98c3.05-2.5 5.25-5.86 6.92-9.4-2.03-1.46-1.05-4.33-1.77-6.43-.64-3.74-.68-7.6-1.87-11.23-1.41-2.06-2.12-4.95-4.43-6.3-3.84-.75-2.46 3.96-.77 5.56.74 2.8.31 5.8.75 8.66.55 1.22-.28 3.53-.6.99.45-2.76-2.03-4.2-4.22-5.1a88 88 0 0 0-5.93 10.08c.39 2.09 4.21 1.29 5.43 3.28 1.8 2.15-2.68-1.32-3.74-1.28-3.2-2.42-3.92 2.06-5.4 4.07-.95 1.64-2.85 3.83.1 4.42a8.3 8.3 0 0 0 6.82.96c1.01-.27 2.01-.5 2.81.36 1.46.81 2.87 2.17 4.4 2.5q.78-.53 1.5-1.14m-13.3-12.92 8.24-14.12c-2.7-1.5-5.37-3.19-8.12-4.54.89 2.12 5.55 2.9 5.05 6.21.34 2.68-3.34 2.56-4.08 3.38 1.3 2.78-1.54 5.2-4.14 4.69 1.19 2.28-.77 5.37-3.44 4.7-1.68-.26 1.4 2.75-.12 3.94-.88 3.03-4.7 2.59-6.52.72-.55-.2-2.79 2.44-1.07 2.8 2.33 1.4 4.51 3.08 6.96 4.26 2.54-3.93 4.85-8.01 7.23-12.04m-7.6 4.6c2.22-2.8-1.6-4.95-3.54-6.43-1.87-1.52-5.36-4.54-7.12-1.28-1.04 3.2 2.89 4.45 4.73 6.24 1.69 1.23 3.89 3.51 5.93 1.47m3.58-5.87c2.3-2.9-1.67-4.86-3.72-6.17-2.36-1.14-4.43-3.69-7.2-3.51-3.64 1.12-1.49 5.37 1.25 6.15 2.38 1.47 4.62 3.28 7.24 4.29.87.17 1.8-.12 2.43-.76m4.08-4.6c2.34-2.98-1.84-4.94-3.85-6.35-2.56-1.35-4.78-4.08-7.83-4.07-3.75 1.11-1.36 5.44 1.35 6.24 2.55 1.66 4.97 3.62 7.71 4.94.92.17 1.94-.1 2.62-.75m11.26-5.28c-.04-1.83-.56-4.7-1.94-5.5.17 2-1.41 4-1.12 5.63 1.12.36 3.88 3.29 3.06-.13m-7.43.18c2.4-3.12-2.12-5.05-4.2-6.5-2.53-1.2-4.78-4.1-7.76-3.64-3.32 1.49-1.06 5.24 1.5 6.09 2.58 1.63 5.06 3.5 7.83 4.8.92.17 1.95-.1 2.63-.75m4.12-5.67c-2.54-.3 1.35 3.03 0 0m-1.87-1.34c1.55-2.2-.38-4.58-2.6-5.17-1.05-1.07-1.34.47-1.86 1.21-.31.76-1.24 1.69-1.17 2.34 1.6.89 3.13 1.9 4.8 2.62.4-.23.6-.64.83-1" style="fill:#000;stroke-width:3.01548"/><path d="M36.24 21.62c.05 1.6 3.31 2.3 4.23 3.91 2.12 2.46-.54 5.87-3.46 5.33a3.52 3.52 0 0 1-4 5.01 3.44 3.44 0 0 1-4.18 4.74c2.47 2.72-.68 7.86-4.15 5.74-1.49-1.4-2.85-1.48-3.4.75.78 2.04 4.63 3.28 6.69 4.9 2.14.87 2.7-3.63 4.12-4.87q6.17-10.4 12.22-20.89c-2.6-1.65-5.37-3.12-8.07-4.62" style="fill:#0f6;stroke-width:.0592246"/><path d="M38.68 16.76c-.94 1.8-3.66 4.38-.25 5.1 1.6 1.2 3.93 2.29 4.29-.62.53-2.77-2.03-3.62-4.04-4.48" style="fill:#b3b3b3;stroke-width:.0592246"/><path d="M43.75 23.53c-2.2 1.32 2.49 2.4 0 0" style="fill:red;stroke-width:.0592246"/><path d="M47.47 19.8c-3.95.68-.43 4.57.21 6.59.14 3.25.4 6.5.6 9.75-1.36-.4 0-4.6-2.67-4.94-3.34-3.27-4.32 3.18-6.2 5.11-1.62 2.09-3.33 5.51.74 5.45 1.16.18 5.03 3.43 2.04 1.85-1.85-.86-5.6-3.98-6.6-.78-.77 2.25-3.9 4.91-3.17 7.01 3.01 2.49 6.9 2.03 10.32 1.64 1.95.67 4.05 3.99 6 2.33a26 26 0 0 0 7.56-9.95c-2.1-2.11-1.2-5.55-2-8.25-.57-3.29-.5-6.77-1.87-9.85-1.47-1.93-2.13-5.66-4.96-5.96M28.8 19.05c-4.23.63-2.29 5.55.78 6.36 3 1.51 5.63 4.8 9.13 4.67 3.53-1.02 1.52-5.35-1.18-6.08-2.75-1.67-5.31-3.83-8.36-4.93zM24.88 24c-3.78.19-2.52 5.35.47 6.03 3.04 1.65 5.65 4.83 9.15 5.23 3.9-.66 2.12-5.52-.85-6.23-2.79-1.67-5.27-4.14-8.42-5.03zM21.73 29.28c-3.65.1-3.1 5.14-.01 5.85 2.9 1.55 5.46 4.52 8.85 4.74 3.41-.71 2.24-5.05-.49-5.84-2.74-1.56-5.27-4-8.35-4.75M19.95 35.75c-3.24.12-2.84 4.64-.26 5.57 2.18 1.5 4.1 3.7 6.67 4.45 4.03-.02 3.05-5.05.13-6.1-2.08-1.33-3.97-3.75-6.54-3.92" style="fill:#fff;stroke-width:.0592246"/><path d="M124.08 22.6c-40.41-.32-79.58 24.78-95.86 61.8-18.32 39.55-9.51 89.86 21.96 120.23 22.45 23 55.8 33.74 87.53 29.76 44.09-4.1 82.52-39.56 91.14-82.84 9.31-40.93-7.94-86.58-42.93-110.14a106.7 106.7 0 0 0-61.84-18.8M128 33.11c23.14-1.41 45.46 9.5 62.46 24.52 15.69 14.69 26.98 34.72 29.97 56.09.46 17.01 2 34.84-5.53 50.69-12.83 32.81-45.07 58.44-80.68 60.16-16.3 1.17-33.1.12-48.04-7.15-30.16-12.9-53.05-42.54-56.73-75.24-.2-15.8-1.86-32.37 4.98-47.17 11.75-32.22 41.97-57.1 76.02-61.64 5.84-.37 11.7-.22 17.55-.26" style="fill:#fff;stroke-width:.223841;filter:url(#b)" transform="scale(.265)"/></g></svg>