<?xml version="1.0" encoding="UTF-8" standalone="no"?>
<!-- Created with Inkscape (http://www.inkscape.org/) -->

<svg
   width="12.271959mm"
   height="14.550688mm"
   viewBox="0 0 12.271959 14.550688"
   version="1.1"
   id="svg1"
   xml:space="preserve"
   inkscape:version="1.4.3 (0d15f75, 2025-12-25)"
   sodipodi:docname="rock_green.svg"
   xmlns:inkscape="http://www.inkscape.org/namespaces/inkscape"
   xmlns:sodipodi="http://sodipodi.sourceforge.net/DTD/sodipodi-0.dtd"
   xmlns="http://www.w3.org/2000/svg"
   xmlns:svg="http://www.w3.org/2000/svg"><sodipodi:namedview
     id="namedview1"
     pagecolor="#ffffff"
     bordercolor="#000000"
     borderopacity="0.25"
     inkscape:showpageshadow="2"
     inkscape:pageopacity="0.0"
     inkscape:pagecheckerboard="0"
     inkscape:deskcolor="#d1d1d1"
     inkscape:document-units="mm"
     inkscape:zoom="1.5794823"
     inkscape:cx="73.441788"
     inkscape:cy="15.511412"
     inkscape:window-width="3840"
     inkscape:window-height="2054"
     inkscape:window-x="1609"
     inkscape:window-y="1609"
     inkscape:window-maximized="1"
     inkscape:current-layer="layer1"
     showgrid="false" /><defs
     id="defs1" /><g
     inkscape:label="Layer 1"
     inkscape:groupmode="layer"
     id="layer1"
     transform="translate(-55.475865,-59.2426)"><path
       style="fill:#000000"
       d="m 57.599384,73.577582 c -0.23807,-0.118639 -0.49817,-0.315379 -0.57799,-0.437201 -0.21989,-0.335591 -1.47772,-4.169566 -1.47772,-4.50421 0,-0.32986 0.30057,-1.014246 0.47481,-1.081106 0.0629,-0.02415 0.19191,-0.16928 0.28661,-0.322507 l 0.17218,-0.278596 -0.26232,-1.554503 c -0.14428,-0.854977 -0.37246,-2.202203 -0.50707,-2.993837 -0.29738,-1.748916 -0.30181,-1.947603 -0.0539,-2.416384 0.48504,-0.917236 1.81418,-0.982559 2.35005,-0.115499 l 0.18073,0.292435 0.28697,1.712391 c 0.15783,0.941815 0.33689,1.960041 0.3979,2.262724 l 0.11093,0.550333 0.0513,-0.358394 c 0.12257,-0.856123 0.6233,-1.42764 1.33437,-1.523016 l 0.33048,-0.04433 0.38636,0.187034 c 0.21249,0.102868 0.45162,0.297509 0.53138,0.432534 l 0.14502,0.245501 0.15686,-0.247746 c 0.51468,-0.81289 1.85084,-0.72965 2.31289,0.144088 0.20452,0.386754 0.28965,0.382631 0.2881,-0.01395 -0.001,-0.300669 0.3083,-2.447835 0.43388,-3.010325 0.31371,-1.405103 1.94565,-1.723202 2.59558,-0.505931 l 0.20104,0.376534 -0.0533,0.550334 c -0.0293,0.302683 -0.12466,1.026583 -0.21181,1.608666 -0.0871,0.582084 -0.22036,1.515534 -0.29603,2.074334 -0.0757,0.5588 -0.23117,1.6256 -0.34556,2.370666 l -0.20797,1.354667 0.0912,0.846666 c 0.31799,2.953099 0.0628,4.022413 -1.07303,4.497009 l -0.2808,0.117325 h -3.66909 -3.6691 z m 8.09663,-0.378903 c 0.20614,-0.136961 0.36296,-0.485997 0.58874,-1.31039 l 0.13913,-0.508 -0.0557,-0.804334 c -0.10382,-1.500169 -0.16947,-2.073862 -0.25841,-2.257945 -0.0488,-0.100986 -0.0666,-0.291486 -0.0397,-0.423333 0.28156,-1.376311 1.15933,-6.936245 1.15833,-7.337067 l -8e-4,-0.324013 -0.24749,-0.247487 -0.24748,-0.247488 h -0.3761 c -0.79984,0 -0.8436,0.09947 -1.28496,2.921 -0.16754,1.071034 -0.39867,2.525182 -0.51363,3.231442 -0.11495,0.706259 -0.20901,1.415969 -0.20901,1.577133 0,0.161163 -0.0572,0.340455 -0.127,0.398425 -0.0699,0.05797 -0.127,0.195986 -0.127,0.3067 0,0.1374 -0.0484,0.2013 -0.1524,0.2013 -0.0838,0 -0.18859,0.03195 -0.23283,0.07101 -0.0874,0.07719 -1.08038,0.267661 -1.39534,0.267661 -0.1204,0 -0.39288,0.185806 -0.71393,0.486833 -0.28558,0.267758 -0.68886,0.628712 -0.89619,0.802119 l -0.37697,0.315286 0.0917,0.150381 c 0.0504,0.08271 0.38785,0.398031 0.7498,0.700714 l 0.65807,0.550333 -0.26616,0.02677 -0.26616,0.02677 -0.52047,-0.450103 c -0.28626,-0.247557 -0.69124,-0.632313 -0.89995,-0.855013 -0.44334,-0.473047 -0.75687,-0.63722 -1.28178,-0.671165 l -0.38027,-0.02459 -0.0281,-0.148167 -0.0281,-0.148166 1.25504,-3.17e-4 1.25504,-3.16e-4 0.27106,-0.165273 c 0.70868,-0.432106 0.68015,-1.441331 -0.0514,-1.81965 l -0.25354,-0.131111 h -1.53377 c -1.66527,0 -1.71433,0.01098 -2.22486,0.49794 -0.70208,0.669664 -0.75798,1.304082 -0.22843,2.592393 0.0383,0.09313 0.13768,0.378884 0.22088,0.635 0.0832,0.256117 0.18168,0.501862 0.21885,0.5461 0.0372,0.04424 0.0676,0.132323 0.0676,0.195743 0,0.203188 0.43912,1.07051 0.66557,1.314598 l 0.21905,0.236108 3.73249,-0.02444 3.73249,-0.02444 z m -2.47295,-5.074629 c 0.47179,-0.287666 0.62164,-0.869225 0.83208,-3.229202 l 0.0574,-0.643442 -0.13986,-0.270469 c -0.39434,-0.762559 -1.47154,-0.774323 -1.86145,-0.02033 -0.1139,0.22027 -0.28187,1.337096 -0.44172,2.937021 l -0.0512,0.512674 0.14182,0.274237 c 0.17217,0.332939 0.59376,0.604782 0.93792,0.604782 0.1397,0 0.37598,-0.07437 0.52506,-0.165272 z m -2.65518,-1.193301 c 0.12157,-0.09563 0.26149,-0.324096 0.31093,-0.507703 0.19062,-0.707899 0.42219,-1.901698 0.42219,-2.176464 V 63.95893 l -0.24748,-0.247487 -0.24749,-0.247487 h -0.39403 -0.39402 l -0.24062,0.240621 c -0.13234,0.132342 -0.27663,0.389517 -0.32063,0.5715 -0.24417,1.009791 -0.35911,1.641132 -0.35814,1.967225 l 0.001,0.366346 0.24749,0.247487 0.24748,0.247487 h 0.3761 c 0.25117,0 0.44952,-0.05776 0.59714,-0.173873 z m -2.05436,-0.327614 0.24748,-0.247487 v -0.305265 c 0,-0.167896 -0.0923,-0.770902 -0.20514,-1.340013 -0.11282,-0.569111 -0.26843,-1.377648 -0.3458,-1.796748 -0.5374,-2.911115 -0.58056,-3.005666 -1.37199,-3.005666 h -0.37609 l -0.24749,0.247487 -0.24749,0.247487 v 0.370177 c 0,0.203598 0.0764,0.749454 0.16967,1.213013 0.0933,0.46356 0.2053,1.033336 0.24884,1.266169 0.67419,3.605235 0.6713,3.598333 1.50442,3.598333 h 0.3761 z"
       id="path1" /><path
       style="fill:#ffffff;stroke-width:0.0791399"
       d="M 8.1103381,28.727636 C 6.1275298,28.53726 5.7576948,27.561407 3.8752277,17.55279 3.5453463,15.798892 3.0654061,13.295496 2.8086939,11.989688 2.0236735,7.9965568 1.8597866,6.8563246 1.8597866,5.3877305 V 4.3946392 L 2.7884428,3.4635573 3.717099,2.5324754 h 1.2728958 c 1.5236392,0 1.9433064,0.096156 2.4473254,0.560745 0.7631801,0.7034748 1.2568181,2.2335607 2.0914568,6.4827021 0.1752705,0.8923015 0.5532,2.8688195 0.839843,4.3922615 0.286643,1.523443 0.74891,3.945122 1.02726,5.381511 0.784571,4.048675 1.068647,5.921972 1.068647,7.047016 v 0.479378 l -0.97652,0.965409 -0.976521,0.965409 -0.9030509,-0.01107 c -0.4966781,-0.0061 -1.1708217,-0.03678 -1.498097,-0.0682 z"
       id="path2"
       transform="matrix(0.26458333,0,0,0.26458333,55.475865,59.2426)" /><path
       style="fill:#ffffff;stroke-width:0.0791399"
       d="m 14.607348,28.773397 -0.980828,-0.983188 0.05155,-1.173373 c 0.07358,-1.67489 0.339806,-3.255646 1.090618,-6.475743 0.444125,-1.904771 0.88932,-2.765649 1.954237,-3.778928 l 0.478244,-0.455054 h 1.451365 1.451365 l 0.968276,0.970606 0.968276,0.970606 -4.29e-4,0.631976 c -7.98e-4,1.175932 -0.561794,4.374941 -1.309019,7.464525 -0.741324,3.065182 -1.590446,3.809082 -4.35024,3.811164 l -0.792586,5.97e-4 z"
       id="path3"
       transform="matrix(0.26458333,0,0,0.26458333,55.475865,59.2426)" /><path
       style="fill:#ffffff;stroke-width:0.0791399"
       d="m 26.521947,34.100552 c -0.531633,-0.124844 -1.414664,-0.646001 -1.950046,-1.150901 -0.378611,-0.357054 -0.629688,-0.69396 -0.9413,-1.263076 l -0.424965,-0.776138 0.09655,-1.03198 c 0.365454,-3.906062 1.02257,-8.978318 1.384564,-10.68741 0.241627,-1.140797 0.476261,-1.660576 0.999203,-2.21351 0.798635,-0.844439 1.682897,-1.237415 2.804488,-1.246344 1.636956,-0.01303 2.942406,0.832957 3.78567,2.453283 l 0.382066,0.734138 -0.08863,1.006939 c -0.676395,7.684809 -1.123285,10.469486 -1.952322,12.165388 -0.717186,1.467094 -2.558278,2.370544 -4.095282,2.009611 z"
       id="path4"
       transform="matrix(0.26458333,0,0,0.26458333,55.475865,59.2426)" /><path
       style="fill:#ffffff;stroke-width:0.0791399"
       d="M 9.0672933,52.766498 C 8.751948,52.407401 8.3040426,51.807076 8.0719479,51.432443 7.2571101,50.117182 6.4306302,48.306183 6.3274468,47.609859 6.2957868,47.396204 6.135249,46.951042 5.9706961,46.62061 5.8061431,46.290179 5.440769,45.34318 5.1587537,44.516168 4.8767383,43.689157 4.4261101,42.428907 4.1573578,41.715613 2.4280824,37.125953 2.7272959,34.961571 5.4466613,32.389348 6.4764224,31.415307 6.9887978,31.110026 7.9535554,30.895701 8.6936228,30.731293 11.6325,30.632483 15.827971,30.630952 l 3.640433,-0.0013 0.751829,0.407818 c 1.549371,0.840431 2.374196,2.086337 2.374196,3.586246 0,1.49382 -0.784916,2.740948 -2.304841,3.662092 l -0.682474,0.41361 H 14.8784 10.149686 l 0.05157,0.257205 c 0.02836,0.141462 0.07187,0.383839 0.09669,0.538614 l 0.04512,0.28141 1.199224,0.09385 c 1.329464,0.104044 1.789344,0.204951 2.544437,0.558302 0.836434,0.391414 1.187812,0.676324 2.888771,2.342311 1.668986,1.634672 2.438411,2.345195 4.066229,3.754947 l 0.940205,0.814252 0.642592,-0.05658 c 0.353426,-0.03112 0.797156,-0.07893 0.986066,-0.106249 l 0.343474,-0.04966 -1.602563,-1.340401 c -2.180977,-1.824193 -3.487431,-3.041974 -3.788629,-3.531482 -0.138126,-0.224485 -0.24018,-0.415679 -0.226783,-0.424876 0.425535,-0.292135 2.845653,-2.402562 4.507234,-3.930463 1.874714,-1.723886 2.381605,-2.041622 3.41657,-2.141621 1.792925,-0.173233 4.013781,-0.63564 4.88106,-1.016291 0.297835,-0.13072 0.666512,-0.237673 0.819283,-0.237673 0.367216,0 0.60514,-0.290857 0.607551,-0.742717 0.002,-0.37366 0.238662,-0.946982 0.51013,-1.23578 0.221898,-0.236063 0.437811,-0.924976 0.437811,-1.396924 0,-0.88731 0.36473,-3.304886 2.893524,-19.179438 1.10949,-6.9648402 1.524126,-8.6141596 2.381502,-9.4730271 0.445122,-0.4458952 0.875498,-0.5564882 2.428974,-0.6241691 l 1.254102,-0.054638 0.981599,0.9792421 0.981599,0.9792421 v 0.7191996 c 0,0.9840763 -0.318629,3.3908208 -1.272391,9.6109264 -0.932586,6.082002 -2.040854,12.800503 -2.734966,16.5798 -0.474681,2.58454 -0.493662,2.953024 -0.192292,3.733069 0.185533,0.480223 0.423223,2.054075 0.595563,3.943497 0.172436,1.890474 0.516836,6.71755 0.51727,7.250002 2.42e-4,0.29712 -0.144575,0.96464 -0.437813,2.018066 -1.010594,3.630442 -1.470255,4.586996 -2.559766,5.326869 l -0.448065,0.304275 -12.502387,0.08924 c -6.876312,0.04908 -13.235694,0.08889 -14.13196,0.08846 L 9.6406473,53.41943 Z"
       id="path5"
       transform="matrix(0.26458333,0,0,0.26458333,55.475865,59.2426)" /><path
       style="fill:#800080;stroke-width:0.0791399"
       d="m 3.5849427,2.4490075 c -0.5989385,0.626838 -1.267551,1.2070035 -1.8251629,1.8614869 -0.1351826,3.005521 0.6238749,5.9420696 1.1503446,8.8766976 0.8520784,4.191206 1.5086015,8.427411 2.5827549,12.570189 0.3281659,1.142787 0.7199099,2.571001 1.9923289,2.979969 0.9875192,0.25579 2.028058,0.108652 3.0369918,0.169564 0.705461,-0.634153 1.40639,-1.332425 2.042334,-2.036614 0.05986,-2.402105 -0.586274,-4.744576 -0.967483,-7.098798 C 10.714963,15.246934 9.9476938,10.697369 8.9214499,6.2025527 8.5525921,4.9488284 8.2769394,3.4371716 7.0785345,2.6906005 6.2926008,2.3011241 5.3647561,2.5206904 4.5203424,2.4348633 4.2113459,2.4492362 3.8840657,2.3838103 3.5849427,2.4490075 Z"
       id="path11"
       transform="matrix(0.26458333,0,0,0.26458333,55.475865,59.2426)" /><path
       style="fill:#800080;stroke-width:0.0791399"
       d="m 41.624781,1.7147999 c -0.995703,0.080191 -2.205967,-0.073788 -2.965889,0.7148864 -0.908167,1.0807853 -1.076514,2.5570675 -1.399787,3.8832628 -0.960263,5.1411129 -1.690863,10.3223059 -2.530834,15.4840399 -0.493756,3.245083 -1.076165,6.502591 -1.397717,9.757246 -0.100199,0.82282 -0.887065,1.370041 -0.890633,2.222871 0.02747,0.372969 -0.270032,0.645351 -0.632345,0.636829 -1.490007,0.474507 -2.995952,0.912703 -4.552407,1.096663 -0.970395,0.138007 -2.045067,0.160971 -2.808064,0.870859 -2.003079,1.606992 -3.817026,3.43615 -5.810751,5.055831 -0.271382,0.188308 -0.468517,0.554886 -0.196922,0.837151 1.078837,1.382313 2.513736,2.434603 3.818858,3.590714 0.41446,0.378596 1.015538,0.814257 1.294473,1.193538 -0.529839,0.02854 -1.084775,0.209976 -1.600418,0.08517 -2.290271,-1.914811 -4.384301,-4.044942 -6.609789,-6.031117 -1.086467,-1.01149 -2.597464,-1.334091 -4.037785,-1.371174 -0.276759,-0.07665 -0.703793,0.05137 -0.884278,-0.207192 0.04272,-0.196602 -0.216648,-0.603558 -0.03524,-0.687527 3.114138,-0.110988 6.238962,-9.25e-4 9.350868,-0.06368 1.12419,-0.681164 2.313926,-1.490819 2.746401,-2.801582 0.267892,-0.878036 0.304062,-1.880025 -0.03156,-2.74341 -0.485095,-1.271451 -1.643901,-2.095055 -2.824225,-2.666698 -1.356664,-0.103251 -2.755924,-0.01375 -4.128927,-0.04297 -2.507944,0.03669 -5.031085,-0.05302 -7.5258597,0.244683 -1.5446656,0.276028 -2.6186073,1.539028 -3.6210374,2.638286 -0.9432999,1.091496 -1.5024177,2.535463 -1.360291,3.988595 0.018916,1.905686 0.8823605,3.660949 1.4443477,5.446007 0.5435243,1.668877 1.24429,3.280814 1.8122343,4.939512 0.5605834,1.758753 1.423699,3.442781 2.5772001,4.887082 0.3694102,0.327589 0.6103614,0.996098 1.202709,0.846614 9.294072,0.0065 18.587764,-0.09282 27.881497,-0.158623 1.075648,-0.522965 1.780048,-1.554752 2.160243,-2.662613 0.541929,-1.518759 1.023534,-3.069418 1.347569,-4.649322 0.106198,-1.638731 -0.166151,-3.27717 -0.238175,-4.913552 -0.212185,-2.244911 -0.255858,-4.529566 -0.814137,-6.724334 -0.391875,-1.24437 0.0408,-2.552549 0.196303,-3.799023 1.382264,-7.85399 2.657733,-15.728482 3.764399,-23.6261831 0.129146,-1.0918912 0.277202,-2.2065256 0.182856,-3.2996064 -0.683955,-0.6527996 -1.321234,-1.3762213 -2.033678,-1.9859157 -0.283069,0.00489 -0.566138,0.00979 -0.849208,0.014684 z"
       id="path12"
       transform="matrix(0.26458333,0,0,0.26458333,55.475865,59.2426)" /><path
       style="fill:#800080;stroke-width:0.0791399"
       d="m 28.448305,15.601062 c -1.850742,0.0046 -3.517509,1.477336 -3.820032,3.291578 -0.754538,3.949786 -1.133868,7.959803 -1.549886,11.956137 0.644774,1.590493 1.957905,3.099977 3.716482,3.417235 1.83697,0.218176 3.676068,-1.036038 4.221926,-2.791535 0.840837,-2.492436 1.001925,-5.146695 1.313681,-7.741341 0.137147,-1.586812 0.358102,-3.174468 0.401273,-4.765075 -0.381976,-1.165624 -1.161932,-2.258457 -2.238946,-2.877166 -0.622905,-0.336653 -1.337064,-0.505128 -2.044498,-0.489833 z"
       id="path13"
       transform="matrix(0.26458333,0,0,0.26458333,55.475865,59.2426)" /><path
       style="fill:#800080;stroke-width:0.0791399"
       d="m 17.09019,15.8374 c -0.909534,0.874096 -1.804891,1.84846 -2.116415,3.109102 -0.646554,2.384491 -1.19506,4.814084 -1.39928,7.280786 -0.01857,0.543538 -0.07377,1.103206 -0.01438,1.637978 0.681922,0.655011 1.318348,1.378094 2.028267,1.991326 1.365227,-0.0071 3.014765,0.124014 4.021758,-0.998522 1.04138,-1.261768 1.2127,-2.969936 1.609952,-4.500365 0.42127,-2.147359 0.953107,-4.307475 0.920359,-6.509349 -0.63555,-0.704363 -1.332194,-1.40579 -2.036614,-2.041252 -1.002029,0.02065 -2.022001,-0.0408 -3.013652,0.0303 z"
       id="path14"
       transform="matrix(0.26458333,0,0,0.26458333,55.475865,59.2426)" /><path
       style="fill:#ffffff;stroke-width:0.0791399"
       d="m 41.412403,1.6021184 c -1.06423,0.073895 -2.39717,0.032449 -3.052912,1.0493759 -0.845062,1.2428757 -0.973378,2.8016335 -1.30471,4.2296744 -1.211103,6.7346233 -2.210562,13.5056423 -3.266096,20.2659333 -0.264119,1.52837 -0.382582,3.08005 -0.639287,4.607302 -0.281047,0.74949 -0.798299,1.414316 -0.881512,2.233382 -0.147934,0.373545 -0.686642,0.330244 -0.996514,0.494934 -1.822556,0.558084 -3.706142,0.856723 -5.58106,1.169013 -1.125291,0.218662 -1.866329,1.190904 -2.736507,1.850667 -1.51458,1.341481 -3.047495,2.665995 -4.537558,4.033041 -0.459211,0.455628 0.09618,1.005988 0.407447,1.351716 1.373876,1.484709 3.015671,2.683089 4.47913,4.072765 -0.532347,0.07888 -1.184471,0.27023 -1.606292,-0.205269 -2.362937,-1.965949 -4.481069,-4.211999 -6.855336,-6.163944 -1.250305,-0.881414 -2.833506,-0.865491 -4.284681,-1.070243 -0.123829,-0.307773 -0.206283,-0.693869 0.273739,-0.554858 2.995056,-0.114875 5.998885,-0.06037 8.99088,-0.08908 1.232383,-0.785909 2.605622,-1.762841 2.862791,-3.311972 0.192279,-1.115632 0.103506,-2.36061 -0.649503,-3.264365 -0.648402,-0.84787 -1.571687,-1.504185 -2.554578,-1.876076 -3.665921,0.04977 -7.340065,-0.07548 -10.9996682,0.184153 -1.7304702,0.07382 -3.0302162,1.393874 -4.0911423,2.624211 -1.0640465,1.182777 -1.6747693,2.779865 -1.5099594,4.377653 0.1437827,1.868977 0.9241746,3.608924 1.4870864,5.376654 0.8069599,2.177008 1.5548604,4.377199 2.4354021,6.524988 0.6603508,1.461434 1.5076516,2.884468 2.6728076,3.996509 0.9243788,0.208529 1.9010118,0.06896 2.8442428,0.11678 8.099565,-0.02564 16.199795,-0.04834 24.298564,-0.158978 0.781586,-0.06233 1.78269,0.06609 2.285009,-0.687682 1.143716,-1.093381 1.455694,-2.711145 1.95732,-4.147733 0.439228,-1.373816 0.783894,-2.803627 0.647494,-4.256858 -0.203163,-3.036271 -0.35952,-6.086287 -0.845171,-9.093508 -0.252484,-1.013475 -0.414731,-2.055328 -0.21963,-3.091087 0.822287,-5.214886 1.764198,-10.417882 2.574715,-15.63767 0.574494,-3.809601 1.248788,-7.6118419 1.568967,-11.4536717 -0.0029,-0.4944139 0.07715,-1.0042991 0.01778,-1.4891277 C 43.885425,2.93289 43.216202,2.1807887 42.468426,1.5509557 c -0.352008,0.017054 -0.704015,0.034108 -1.056023,0.051163 z"
       id="path6"
       transform="matrix(0.26458333,0,0,0.26458333,55.475865,59.2426)" /><path
       style="fill:#ffffff;stroke-width:0.0791399"
       d="m 28.431612,15.500438 c -1.899618,0.01939 -3.636431,1.532368 -3.904284,3.415997 -0.766029,3.940529 -1.136758,7.944257 -1.568577,11.931571 0.67396,1.571562 1.920802,3.125291 3.678148,3.481998 0.858488,0.07564 1.764891,0.03178 2.500715,-0.469851 1.105101,-0.586416 1.857296,-1.678841 2.151242,-2.881125 0.825983,-2.930212 0.976847,-5.991463 1.328271,-9.001458 0.04479,-1.056557 0.326366,-2.131448 0.129926,-3.18309 -0.549467,-1.842022 -2.330172,-3.391485 -4.315441,-3.294042 z"
       id="path7"
       transform="matrix(0.26458333,0,0,0.26458333,55.475865,59.2426)" /><path
       style="fill:#ffffff;stroke-width:0.0791399"
       d="m 17.045365,15.740639 c -1.028239,0.944505 -1.957653,2.087377 -2.247912,3.486946 -0.731627,2.741037 -1.370707,5.55055 -1.36609,8.40119 0.306415,0.740859 1.036124,1.216894 1.547241,1.813674 0.286119,0.456208 0.732125,0.576576 1.242902,0.492429 1.250373,0.02051 2.747214,-0.03799 3.570878,-1.133689 1.023926,-1.431978 1.221518,-3.250605 1.630973,-4.917506 0.39028,-2.036599 0.906907,-4.108757 0.766872,-6.189897 -0.678801,-0.648803 -1.312555,-1.365038 -2.018685,-1.972932 -1.039711,0.01681 -2.095912,-0.04512 -3.126179,0.01979 z"
       id="path8"
       transform="matrix(0.26458333,0,0,0.26458333,55.475865,59.2426)" /><path
       style="fill:#ff0000;stroke-width:0.0791399"
       d="m 3.529143,2.3466823 c -0.5896708,0.677481 -1.394065,1.1992292 -1.8200621,2.0043096 -0.2351743,0.9104586 0.01927,1.866405 0.052466,2.7902299 0.4172533,3.3726792 1.2032205,6.6863642 1.8000312,10.0295882 0.6434855,3.164711 1.1454243,6.371697 2.0990862,9.462843 0.2933233,1.019804 0.9647324,2.092107 2.0959697,2.273571 0.9633482,0.07859 1.9471547,0.09956 2.904372,0.04993 0.651738,-0.673562 1.372824,-1.300386 1.982668,-2.002145 0.110657,-2.42729 -0.542719,-4.792003 -0.934279,-7.167088 C 10.799956,15.108877 10.035448,10.396218 8.8908426,5.7667598 8.5435282,4.5728942 8.2188137,3.1033203 6.96879,2.5352577 5.8823948,2.2140936 4.7179118,2.3990205 3.6013272,2.3174685 Z"
       id="path9"
       transform="matrix(0.26458333,0,0,0.26458333,55.475865,59.2426)" /><path
       style="fill:#ff0000;stroke-width:0.0791399"
       d="m 16.971944,15.679584 c -1.012882,0.988835 -1.958889,2.143248 -2.246052,3.566556 -0.723954,2.738565 -1.408551,5.546753 -1.323433,8.398401 0.215072,0.663371 0.856971,1.084193 1.283797,1.610064 0.342992,0.338846 0.675766,0.810362 1.225183,0.738473 1.334991,0.05178 2.947672,0.03999 3.873371,-1.088481 1.160021,-1.573486 1.341908,-3.598825 1.796416,-5.44336 0.400223,-1.893291 0.762793,-3.83062 0.707618,-5.764978 -0.700311,-0.673183 -1.354249,-1.415577 -2.082213,-2.047434 -1.075803,0.02043 -2.169512,-0.04089 -3.234687,0.03076 z"
       id="path10"
       transform="matrix(0.26458333,0,0,0.26458333,55.475865,59.2426)" /><path
       style="fill:#ff0000;stroke-width:0.0791399"
       d="m 28.444132,15.430881 c -1.928489,0.01079 -3.709338,1.570399 -3.976045,3.482083 -0.794328,3.933374 -1.141361,7.939459 -1.588476,11.922676 0.697077,1.703259 2.110806,3.369539 4.039997,3.599009 1.981821,0.143734 3.899658,-1.313379 4.380206,-3.229432 0.866689,-3.036922 1.045254,-6.213407 1.399207,-9.337404 0.05212,-1.093817 0.352765,-2.229652 0.04819,-3.307507 -0.65149,-1.786449 -2.352111,-3.177412 -4.303075,-3.129425 z"
       id="path15"
       transform="matrix(0.26458333,0,0,0.26458333,55.475865,59.2426)" /><path
       style="fill:#00ff00;stroke-width:0.0791399"
       d="m 41.464493,1.5237514 c -1.087063,0.091328 -2.44805,0.06207 -3.144727,1.0637509 -0.880897,1.3084387 -1.015994,2.9433383 -1.357152,4.4448491 -1.298664,7.2986386 -2.415418,14.6290376 -3.51474,21.9600406 -0.212865,1.209261 -0.159951,2.501207 -0.780729,3.601372 -0.268621,0.4588 -0.348693,1.002336 -0.57887,1.466825 -1.156325,0.587778 -2.478838,0.736163 -3.730137,1.030325 -1.155812,0.277183 -2.383486,0.323062 -3.485347,0.790819 -1.617257,1.164168 -3.066699,2.550528 -4.573599,3.852841 -0.704045,0.671455 -1.499285,1.271468 -2.114337,2.02484 -0.06105,0.61891 0.553241,1.057998 0.898979,1.493609 1.266508,1.304905 2.707618,2.422554 4.032114,3.664701 -0.499853,0.107088 -1.063404,0.09925 -1.429,-0.304194 -2.424323,-1.97409 -4.534747,-4.315004 -7.029226,-6.203668 -1.190028,-0.772558 -2.674345,-0.716495 -4.012793,-0.995586 -0.187937,-0.134923 -0.125843,-0.394573 0.13834,-0.338353 3.021279,-0.190095 6.081887,-0.07228 9.111594,-0.135713 1.245571,-0.81984 2.624516,-1.851355 2.86171,-3.432691 0.260172,-1.286269 -0.04064,-2.71232 -1.003623,-3.646153 -0.627576,-0.660406 -1.414235,-1.211849 -2.265066,-1.51052 -3.660501,0.06636 -7.326635,-0.01291 -10.982977,0.191883 -1.7511815,0.06321 -3.0769847,1.405427 -4.1607505,2.636901 -1.1199656,1.233546 -1.7333036,2.932602 -1.5074872,4.598214 0.1827591,1.952588 1.0042983,3.76782 1.595997,5.618114 0.8816052,2.400149 1.6864464,4.840623 2.7934235,7.148886 0.6291228,1.080425 1.2786642,2.208388 2.2482804,3.018774 0.5365338,0.181724 1.1490488,0.02441 1.7106248,0.0817 8.447901,-0.005 16.896523,-0.01059 25.343705,-0.119009 0.874013,-0.05021 1.958623,0.03408 2.53053,-0.77975 1.178393,-1.353189 1.545732,-3.175882 2.095476,-4.834615 0.761003,-2.373111 0.293337,-4.882686 0.167453,-7.310057 -0.168914,-2.179244 -0.376367,-4.361342 -0.824656,-6.502967 -0.129258,-1.777798 0.332442,-3.535104 0.566237,-5.292421 1.171827,-7.209927 2.48739,-14.400577 3.392128,-21.6506552 0.125562,-1.2040779 0.26528,-2.4292176 0.231411,-3.6314945 -0.737256,-0.674028 -1.428663,-1.4213126 -2.193968,-2.050526 -0.342939,0.016642 -0.685878,0.033284 -1.028818,0.049926 z"
       id="path16"
       transform="matrix(0.26458333,0,0,0.26458333,55.475865,59.2426)" /><path
       style="fill:#00ff00;stroke-width:0.0791399"
       d="m 28.433003,15.333502 c -1.914241,0.03187 -3.709188,1.527029 -4.027013,3.4279 -0.835443,3.985396 -1.191084,8.050219 -1.64277,12.091704 0.700155,1.618872 1.96718,3.230769 3.776764,3.617712 1.333151,0.233169 2.735534,-0.243881 3.652335,-1.238724 1.246134,-1.092724 1.419073,-2.837685 1.753443,-4.357484 0.495494,-2.939091 0.759154,-5.912999 1.028354,-8.87943 0.226287,-2.46563 -2.117213,-4.734956 -4.541113,-4.661678 z"
       id="path17"
       transform="matrix(0.26458333,0,0,0.26458333,55.475865,59.2426)" /><path
       style="fill:#00ff00;stroke-width:0.0791399"
       d="m 16.867919,15.583905 c -1.064391,1.115323 -2.052071,2.404121 -2.335162,3.95786 -0.674558,2.655415 -1.359865,5.379911 -1.184862,8.140955 0.256151,0.820134 1.03765,1.335966 1.590433,1.95218 0.290474,0.45404 0.740167,0.55331 1.245148,0.456622 1.160317,-0.02807 2.487179,0.03977 3.3888,-0.835433 1.299366,-1.280934 1.493695,-3.208857 1.920822,-4.891744 0.458186,-2.216452 1.017162,-4.476466 0.855411,-6.749698 -0.706383,-0.676033 -1.36731,-1.420075 -2.100917,-2.055318 -1.123538,0.01916 -2.267857,-0.04922 -3.379673,0.02458 z"
       id="path18"
       transform="matrix(0.26458333,0,0,0.26458333,55.475865,59.2426)" /><path
       style="fill:#00ff00;stroke-width:0.0791399"
       d="M 3.4894185,2.2043233 C 2.8624034,2.9379764 2.0161063,3.5351386 1.5895982,4.4171479 1.4287586,5.766294 1.6476459,7.136753 1.8308876,8.4750295 2.6394945,13.168949 3.5692707,17.842127 4.5156741,22.510027 c 0.4136947,1.729384 0.6968942,3.523272 1.4559846,5.143943 0.4765276,0.831244 1.3654846,1.461364 2.3546591,1.395312 0.8081838,0.0042 1.63219,0.04989 2.4306752,-0.01346 0.65957,-0.690689 1.389236,-1.33514 2.005391,-2.054545 0.06968,-2.602065 -0.605945,-5.13644 -1.034753,-7.683138 C 10.831961,14.714017 10.093718,10.092326 8.9335296,5.5648303 8.5810537,4.4338297 8.2712284,3.0145432 7.0762161,2.4789942 5.9481328,2.1127028 4.7305209,2.2662183 3.5643849,2.173873 l -0.073322,0.029782 z"
       id="path19"
       transform="matrix(0.26458333,0,0,0.26458333,55.475865,59.2426)" /></g></svg>
